<?xml version="1.0" encoding="UTF-8" standalone="no"?>
<!-- Created with Inkscape (http://www.inkscape.org/) -->

<svg
   xmlns:dc="http://purl.org/dc/elements/1.1/"
   xmlns:cc="http://creativecommons.org/ns#"
   xmlns:rdf="http://www.w3.org/1999/02/22-rdf-syntax-ns#"
   xmlns:svg="http://www.w3.org/2000/svg"
   xmlns="http://www.w3.org/2000/svg"
   xmlns:sodipodi="http://sodipodi.sourceforge.net/DTD/sodipodi-0.dtd"
   xmlns:inkscape="http://www.inkscape.org/namespaces/inkscape"
   version="1.1"
   id="svg869"
   width="64"
   height="64"
   viewBox="0 0 64.000001 64.000002"
   sodipodi:docname="mlmp.svg"
   inkscape:version="0.92.5 (2060ec1f9f, 2020-04-08)">
  <metadata
     id="metadata875">
    <rdf:RDF>
      <cc:Work
         rdf:about="">
        <dc:format>image/svg+xml</dc:format>
        <dc:type
           rdf:resource="http://purl.org/dc/dcmitype/StillImage" />
        <dc:title></dc:title>
      </cc:Work>
    </rdf:RDF>
  </metadata>
  <defs
     id="defs873" />
  <sodipodi:namedview
     pagecolor="#ffffff"
     bordercolor="#666666"
     borderopacity="1"
     objecttolerance="10"
     gridtolerance="10"
     guidetolerance="10"
     inkscape:pageopacity="0"
     inkscape:pageshadow="2"
     inkscape:window-width="1920"
     inkscape:window-height="1084"
     id="namedview871"
     showgrid="false"
     inkscape:zoom="4.707483"
     inkscape:cx="-41.74129"
     inkscape:cy="24.271139"
     inkscape:window-x="0"
     inkscape:window-y="30"
     inkscape:window-maximized="1"
     inkscape:current-layer="svg869"
     fit-margin-top="0"
     fit-margin-left="0"
     fit-margin-right="0"
     fit-margin-bottom="0" />
  <g
     id="g842"
     transform="translate(5.5231214,-14.985563)"
     inkscape:export-xdpi="96"
     inkscape:export-ydpi="96">
    <g
       id="g833">
      <rect
         style="opacity:0;fill:#ffffff;fill-opacity:1;stroke:none;stroke-width:1.6797936;stroke-miterlimit:4;stroke-dasharray:none;stroke-opacity:1"
         id="rect830"
         width="64"
         height="64"
         x="-5.5231214"
         y="14.985563" />
    </g>
    <g
       transform="matrix(0.78662903,0,0,0.78662903,-1.3144514,0.791533)"
       id="g828">
      <path
         style="fill:#251d3a;fill-opacity:1;stroke-width:0.54259312"
         inkscape:connector-curvature="0"
         d="m 38.295498,95.271311 c -0.526425,-0.285946 -0.793164,-0.851871 -0.724579,-1.538794 0.06921,-0.692349 0.399677,-1.110146 0.981393,-1.240368 0.391528,-0.0879 0.848942,0.0044 1.128428,0.227347 0.613886,0.489961 0.654801,1.752574 0.07456,2.301137 -0.133267,0.125882 -0.309881,0.256104 -0.392356,0.28866 -0.234994,0.09332 -0.866249,0.07108 -1.067492,-0.03852 z m 0.827559,-0.425936 c 0.392137,-0.17146 0.571414,-0.618013 0.486385,-1.211068 -0.0298,-0.207813 -0.09645,-0.346174 -0.23885,-0.494844 -0.173026,-0.181226 -0.236248,-0.206729 -0.508035,-0.206729 -0.271774,0 -0.334996,0.02551 -0.508022,0.206729 -0.449264,0.469885 -0.314003,1.453606 0.23435,1.7032 0.235263,0.107432 0.29441,0.107432 0.534172,0.0033 z m -9.091026,-0.866521 c -0.0024,-0.730331 0.01776,-1.363536 0.045,-1.407487 0.03734,-0.06023 0.262191,-0.07542 0.910534,-0.06239 l 0.860979,0.01737 0.01873,0.20293 0.01885,0.202929 h -0.588766 c -0.661856,0 -0.732071,0.03581 -0.732071,0.374933 0,0.329896 0.07675,0.374931 0.642542,0.374931 h 0.49924 l -0.01885,0.20293 -0.01885,0.20293 -0.537225,0.03146 -0.537273,0.03146 -0.01715,0.577861 -0.01715,0.577862 H 30.29849 30.036421 l -0.0049,-1.327725 z m 2.381542,-0.06239 0.519747,-1.390124 h 0.289642 0.28963 l 0.407765,1.061855 c 0.224255,0.584372 0.460551,1.209983 0.525172,1.390123 l 0.117369,0.328269 h -0.28367 -0.283609 L 33.889561,94.99405 33.783503,94.681516 h -0.527458 c -0.575586,0 -0.597503,0.01248 -0.725613,0.390667 -0.07626,0.225176 -0.08976,0.2344 -0.358056,0.2344 h -0.278732 z m 1.113018,0.238741 c 0.04549,-0.124254 -0.214975,-0.848073 -0.305101,-0.848073 -0.09,0 -0.350564,0.723819 -0.305039,0.848073 0.02177,0.05915 0.124083,0.08898 0.305039,0.08898 0.181017,0 0.283342,-0.02985 0.305101,-0.08898 z m 1.409981,-0.238741 0.01618,-1.390124 0.220996,-0.01899 c 0.254151,-0.02225 0.296477,0.02822 0.902822,1.079217 0.191318,0.331525 0.379378,0.59197 0.417909,0.578405 0.04658,-0.01627 0.07991,-0.294085 0.09985,-0.831253 l 0.0298,-0.807378 0.1726,-0.02062 c 0.09767,-0.01248 0.194895,0.01519 0.224036,0.06239 0.02834,0.04557 0.04938,0.680411 0.04695,1.410743 l -0.0049,1.327182 -0.279218,-0.0011 -0.279218,-0.0016 -0.470476,-0.810634 c -0.258773,-0.445468 -0.507281,-0.810634 -0.552197,-0.810634 -0.06495,0 -0.08161,0.166576 -0.08161,0.812263 v 0.812261 h -0.239945 -0.239933 z m 10.457505,1.145414 c -0.01374,-0.01411 -0.02457,-0.08953 -0.02457,-0.167661 0,-0.215953 0.156971,-0.337493 0.437053,-0.337493 0.353775,-5.43e-4 0.581448,-0.172002 0.7968,-0.599566 0.17423,-0.346718 2.705913,-8.632114 2.705913,-8.856205 0,-0.05643 -0.03697,-0.102555 -0.08271,-0.102555 -0.156168,0 -0.810094,0.508409 -1.130385,0.879001 -0.341187,0.394465 -0.400006,0.425393 -0.519431,0.275094 -0.11068,-0.139988 -0.01374,-0.319045 0.453606,-0.83722 0.442113,-0.490506 0.785514,-0.772654 1.278953,-1.049377 l 0.328319,-0.184482 0.222139,-0.771566 c 0.122186,-0.423767 0.256486,-0.806836 0.298484,-0.850244 0.107153,-0.111228 1.345895,-0.557786 1.397502,-0.503527 0.02335,0.02441 -0.09657,0.410744 -0.266302,0.858925 -0.16973,0.447639 -0.308627,0.851329 -0.308627,0.896363 0,0.05805 0.137219,0.09279 0.462606,0.118282 1.028597,0.07922 1.606566,0.53988 1.836356,1.463374 0.395225,1.587628 -0.651116,3.545304 -2.372328,4.43787 -0.471996,0.244708 -1.285398,0.520889 -1.790988,0.607161 l -0.222735,0.03852 -0.295662,0.981551 c -0.162554,0.539338 -0.39137,1.302222 -0.50846,1.694518 -0.253774,0.849702 -0.277321,1.262613 -0.08027,1.406944 0.07298,0.05372 0.254309,0.09767 0.402925,0.09821 0.148676,0.0011 0.304176,0.02333 0.345578,0.051 0.0911,0.06078 0.03333,0.445468 -0.06787,0.453065 -0.281176,0.02008 -3.276074,0.02062 -3.295607,5.42e-4 z m 4.541672,-5.531195 c 1.147255,-0.560499 1.925179,-1.560498 2.12523,-2.731956 0.147959,-0.866522 -0.107153,-1.825283 -0.562997,-2.116113 -0.216216,-0.138362 -0.708134,-0.164949 -0.802553,-0.04341 -0.10095,0.12968 -1.573618,4.995112 -1.539818,5.087353 0.04184,0.11394 0.25431,0.06078 0.780138,-0.195876 z m -30.792694,0.851324 c -0.219536,-0.253933 -0.08563,-0.874659 0.689902,-3.196958 0.576012,-1.724904 0.628323,-1.950622 0.499509,-2.156265 -0.05339,-0.08573 -0.151377,-0.155182 -0.217688,-0.155182 -0.269609,0 -1.000816,0.879001 -1.844212,2.217578 -0.583832,0.926749 -0.750521,1.280521 -1.103859,2.342917 l -0.301305,0.905588 -0.501844,0.01845 c -0.276007,0.01034 -0.527726,-0.0086 -0.559349,-0.04178 -0.03685,-0.03907 0.189847,-0.829625 0.632167,-2.205099 0.37928,-1.179597 0.732557,-2.320671 0.784978,-2.535538 0.115667,-0.474226 0.0613,-0.639717 -0.210146,-0.639717 -0.220461,0 -0.569237,0.323386 -1.110914,1.029842 -0.916274,1.195333 -1.511064,2.30385 -1.903736,3.547474 -0.12176,0.385783 -0.247972,0.736842 -0.28041,0.779705 -0.07529,0.09983 -0.948347,0.106351 -1.042377,0.0081 -0.04926,-0.05149 0.144602,-0.726481 0.737435,-2.56967 0.513179,-1.595223 0.797615,-2.570264 0.786048,-2.693975 -0.03126,-0.33478 -0.188923,-0.278892 -0.709217,0.250679 -0.39778,0.405317 -0.495336,0.475854 -0.580037,0.420509 -0.233317,-0.153011 -0.159514,-0.323386 0.386055,-0.889309 0.594681,-0.61693 0.948785,-0.856755 1.406076,-0.952252 0.376289,-0.07813 0.589099,-0.01248 0.740475,0.229517 0.142109,0.226804 0.07006,0.558328 -0.390713,1.793813 -0.199844,0.536082 -0.363323,0.990233 -0.363323,1.009766 0,0.01953 0.03503,0.03472 0.0776,0.03472 0.04269,0 0.191538,-0.209441 0.330764,-0.465544 0.375206,-0.689636 0.865604,-1.386868 1.306622,-1.856212 0.627399,-0.667932 1.192124,-0.915355 1.641181,-0.718935 0.51948,0.226803 0.534075,0.741724 0.06215,2.186107 -0.27282,0.835051 -0.318175,1.116657 -0.144492,0.897991 0.03515,-0.04449 0.239008,-0.38307 0.453059,-0.752575 0.877269,-1.513836 1.580842,-2.239825 2.3102,-2.383069 0.286005,-0.05589 0.613777,0.09495 0.770481,0.355397 0.220618,0.366793 0.145684,0.780792 -0.544596,3.006509 -0.631144,2.03581 -0.654314,2.164405 -0.399628,2.217036 0.130882,0.02659 0.418724,-0.248507 0.743844,-0.711882 0.20955,-0.298969 0.315901,-0.400434 0.405162,-0.38687 0.08052,0.01192 0.127125,0.07271 0.139226,0.18177 0.0135,0.123168 -0.07249,0.281606 -0.344434,0.635376 -0.661965,0.861095 -1.369406,1.35594 -1.938911,1.35594 -0.227454,0 -0.340043,-0.03093 -0.411827,-0.11394 z m 4.258804,-0.0049 c -0.526205,-0.301139 -0.716332,-0.724904 -0.716332,-1.596851 0,-1.358654 0.623714,-2.87086 1.611784,-3.908298 0.55767,-0.585458 1.018988,-0.867606 1.629347,-0.996743 0.451441,-0.09604 0.778507,-0.03364 1.028219,0.195876 0.38535,0.353769 0.413068,0.880085 0.08404,1.594138 -0.379329,0.823114 -1.469882,1.526857 -2.690831,1.735754 -0.119802,0.02062 -0.250843,0.07868 -0.291101,0.12968 -0.08611,0.108515 -0.151376,1.103092 -0.09353,1.425934 0.0225,0.125341 0.128,0.321759 0.238851,0.444386 0.175203,0.194246 0.233097,0.220293 0.49007,0.219207 0.400711,-0.0022 0.766795,-0.190994 1.164733,-0.601737 0.297936,-0.307107 0.350406,-0.338578 0.462619,-0.275636 0.183717,0.10309 0.156752,0.249051 -0.107397,0.583829 -0.336236,0.425935 -0.69484,0.723277 -1.138948,0.944655 -0.331311,0.165492 -0.466523,0.195876 -0.925238,0.209442 -0.436566,0.01303 -0.576388,-0.0066 -0.746167,-0.103638 z m 1.584102,-3.664673 c 0.675855,-0.334237 1.10212,-0.937059 1.10212,-1.558328 0,-0.767769 -0.632556,-0.791643 -1.153884,-0.04286 -0.365646,0.52523 -0.811067,1.618011 -0.72127,1.770481 0.05291,0.08953 0.406731,0.01248 0.773034,-0.169289 z m 2.538031,3.618554 c -0.10995,-0.145416 -0.128912,-0.230061 -0.102896,-0.459577 0.01751,-0.15464 0.639939,-2.218121 1.382907,-4.585998 0.817307,-2.603905 1.352306,-4.404227 1.354312,-4.556697 0.0049,-0.327727 -0.160875,-0.478026 -0.525062,-0.478026 -0.23733,0 -0.26202,-0.01411 -0.26202,-0.151382 0,-0.353772 -0.01715,-0.348345 1.166898,-0.348345 0.688711,0 1.108578,0.02388 1.132551,0.06457 0.0208,0.03527 -0.608729,2.114486 -1.39929,4.62018 -0.897009,2.842645 -1.437384,4.647853 -1.437384,4.801407 0,0.447639 0.2808,0.386868 0.803636,-0.173087 0.162882,-0.174173 0.32664,-0.316875 0.36381,-0.316875 0.03722,0 0.115667,0.05534 0.174497,0.123169 0.103261,0.119911 0.10168,0.130765 -0.04622,0.333695 -0.215571,0.295713 -0.960826,0.878457 -1.385291,1.083015 -0.224802,0.10798 -0.493597,0.18177 -0.721926,0.197505 -0.341881,0.02333 -0.371837,0.01466 -0.498584,-0.153554 z m 3.873249,0.06239 c -0.08404,-0.05426 -0.216873,-0.196962 -0.295054,-0.316334 -0.587846,-0.897991 0.36207,-3.788925 1.724734,-5.249044 0.469455,-0.502984 0.899344,-0.795985 1.365539,-0.930005 0.316606,-0.09116 0.421388,-0.09604 0.682909,-0.03256 0.169888,0.0407 0.395992,0.144329 0.502501,0.228974 0.106423,0.08519 0.219584,0.154638 0.251377,0.154638 0.03175,0 0.113235,-0.09821 0.181017,-0.218665 l 0.12333,-0.218665 h 0.449702 c 0.266897,0 0.449702,0.02604 0.449702,0.06402 0,0.03527 -0.18964,0.64677 -0.421436,1.358653 -0.362289,1.113401 -0.967552,3.279976 -1.099784,3.937055 -0.02578,0.128595 -0.01447,0.239285 0.0298,0.295171 0.111167,0.13999 0.359577,-0.02875 0.689903,-0.4688 0.29582,-0.393923 0.378514,-0.438958 0.507061,-0.277265 0.113356,0.143245 -0.05875,0.445469 -0.549217,0.963645 -0.503035,0.531741 -1.00809,0.812262 -1.462511,0.812262 -0.271398,0 -0.33136,-0.02225 -0.413726,-0.154096 -0.114207,-0.182311 -0.08088,-0.392837 0.244871,-1.546933 0.113721,-0.402604 0.206839,-0.747151 0.206839,-0.765057 0,-0.130764 -0.164184,0.05263 -0.516111,0.576234 -0.51313,0.763971 -1.216169,1.504612 -1.635866,1.723818 -0.367178,0.190994 -0.779002,0.217038 -1.015408,0.06349 z m 1.304879,-0.985892 c 0.5706,-0.314704 1.947316,-2.344003 2.223067,-3.276719 0.257289,-0.87032 0.196038,-1.396635 -0.186599,-1.603364 -0.239021,-0.12968 -0.395116,-0.11394 -0.694525,0.07 -0.704449,0.431905 -1.608512,2.378729 -1.80607,3.888766 -0.07456,0.570264 -0.0422,0.786217 0.138034,0.918067 0.152581,0.111774 0.129837,0.111774 0.326093,0.0038 z m 11.303516,0.93109 c -0.07079,-0.09441 -0.128377,-0.202931 -0.12789,-0.241453 0.0024,-0.231146 0.251767,-1.104178 0.777218,-2.727617 0.328696,-1.015191 0.601249,-1.948453 0.605798,-2.074335 0.0085,-0.259358 -0.09085,-0.421594 -0.260597,-0.421594 -0.362995,0 -1.799515,1.926748 -2.495717,3.347799 -0.133315,0.271839 -0.349434,0.849701 -0.480243,1.284319 -0.146451,0.486707 -0.273964,0.804665 -0.331688,0.827996 -0.05157,0.02062 -0.293874,0.03744 -0.538478,0.03744 -0.320182,0 -0.453436,-0.02388 -0.4759,-0.08519 -0.01715,-0.04667 0.306073,-1.13619 0.718229,-2.421594 0.412156,-1.28486 0.749366,-2.4357 0.749366,-2.557241 0,-0.257731 -0.08696,-0.371134 -0.284095,-0.371134 -0.289532,0 -1.146124,1.007053 -1.947425,2.289743 -0.471181,0.754204 -0.620673,1.081931 -1.020995,2.239282 l -0.302497,0.87466 -0.521645,0.0179 c -0.395554,0.01411 -0.529197,-0.0022 -0.552634,-0.0662 -0.01715,-0.04666 0.332612,-1.209439 0.776999,-2.584371 0.444375,-1.374931 0.807966,-2.571891 0.807966,-2.659792 0,-0.204014 -0.153384,-0.268583 -0.33732,-0.142158 -0.07772,0.05317 -0.295552,0.264785 -0.484049,0.469342 -0.188497,0.205101 -0.372117,0.373304 -0.408033,0.373304 -0.036,0 -0.107761,-0.04883 -0.159574,-0.109063 -0.12952,-0.150297 -0.0467,-0.29734 0.480571,-0.852955 0.502111,-0.529028 0.949478,-0.825828 1.392187,-0.922951 0.392233,-0.08627 0.632555,0.0044 0.761686,0.285946 0.103748,0.226805 0.02275,0.557244 -0.443669,1.814432 -0.178353,0.480194 -0.324257,0.895821 -0.324257,0.922951 0,0.02659 0.03357,0.04829 0.07456,0.04775 0.04099,-0.0011 0.208955,-0.244166 0.37309,-0.540965 1.04948,-1.896905 2.176229,-2.855667 2.921265,-2.48562 0.527178,0.262073 0.511719,0.848616 -0.06544,2.482907 -0.212592,0.601735 -0.224742,0.83071 -0.02992,0.565925 0.05461,-0.07434 0.273904,-0.435161 0.48731,-0.801953 0.528698,-0.908843 1.064841,-1.602277 1.494025,-1.93326 0.651006,-0.501355 1.264734,-0.51058 1.548829,-0.02333 0.233645,0.400976 0.175641,0.695062 -0.661417,3.349428 -0.263261,0.83505 -0.470318,1.577318 -0.460065,1.649483 0.01095,0.07163 0.06215,0.158979 0.115302,0.193705 0.141938,0.09332 0.406452,-0.128052 0.77678,-0.648942 0.311389,-0.438415 0.42691,-0.50027 0.550081,-0.295713 0.08222,0.136734 0.0085,0.278351 -0.410149,0.797069 -0.637494,0.787847 -1.238524,1.196961 -1.823816,1.241454 -0.307545,0.02333 -0.345091,0.01082 -0.463482,-0.1465 z m 10.930706,0.03038 c -0.689477,-0.367335 -1.023111,-1.201301 -0.948991,-2.371675 0.121018,-1.912098 1.007591,-3.526856 2.202925,-4.013562 0.432991,-0.176343 1.112859,-0.179597 1.476389,-0.0075 0.902336,0.427562 1.164405,1.364078 0.85405,3.053171 -0.272383,1.483992 -1.064573,2.829081 -1.919158,3.257729 -0.478017,0.239827 -1.293536,0.279979 -1.665215,0.08193 z m 0.926211,-0.804123 c 0.580573,-0.313077 1.283234,-1.537166 1.7428,-3.035267 0.3299,-1.074876 0.307107,-1.614214 -0.0765,-1.821485 -0.575148,-0.311448 -1.280521,0.31579 -1.999456,1.77862 -0.485072,0.98752 -0.684211,1.649483 -0.692348,2.302766 -0.0049,0.484536 0.0024,0.521432 0.168745,0.703201 0.211071,0.230602 0.515466,0.256647 0.856762,0.07216 z m 4.967438,-5.746062 c -0.565928,-0.191535 -1.228429,-0.772652 -1.424856,-1.25122 -0.276712,-0.672273 -0.30656,-1.876286 -0.08842,-3.565922 0.136185,-1.059142 0.136732,-2.71378 0.0011,-3.498695 -0.233316,-1.348833 -0.643514,-2.561909 -1.324465,-3.917955 -0.46555,-0.92713 -0.867064,-1.610907 -2.170378,-3.694572 -3.408027,-5.450022 -4.726204,-8.321155 -5.239821,-11.413339 -0.121627,-0.732228 -0.135808,-2.727832 -0.02785,-3.933094 0.0371,-0.412316 0.08453,-1.24167 0.105816,-1.842972 0.129301,-3.663154 -0.95888,-6.141394 -3.061318,-6.971724 -0.761419,-0.300706 -1.342588,-0.398427 -2.797279,-0.470321 -2.66777,-0.131849 -3.868638,0.05117 -5.029516,0.766522 -0.493111,0.303852 -1.374174,1.238685 -1.772051,1.880139 -1.212046,1.954313 -1.947048,4.818824 -1.951706,7.606668 -0.0024,1.222734 0.02968,1.430493 0.448012,2.942971 0.314648,1.137275 0.395821,1.684535 0.395821,2.668907 0,2.297123 -0.562608,4.663642 -1.938959,8.155555 -1.173137,2.976557 -2.018929,4.79457 -2.414045,5.189252 l -0.183717,0.18345 -0.174291,-0.174714 c -0.232222,-0.232827 -0.507423,-0.786435 -0.639108,-1.285512 -0.08344,-0.316223 -0.106301,-0.627292 -0.103382,-1.405642 0.0049,-1.203636 0.102531,-1.927509 0.675632,-4.990392 0.566464,-3.027183 0.624796,-3.456645 0.624857,-4.599236 0,-1.051654 -0.07565,-1.484156 -0.36533,-2.088441 -0.339667,-0.708519 -0.918886,-1.22306 -1.605103,-1.425827 -0.439826,-0.12995 -3.863859,-0.823981 -4.591575,-0.930655 -0.802505,-0.117637 -2.105977,-0.102336 -2.716069,0.03175 -1.394023,0.306726 -2.590172,1.157676 -3.408452,2.424848 -0.140321,0.217308 -0.388609,0.577807 -0.551771,0.801139 -0.16315,0.22333 -0.416766,0.673141 -0.563484,0.999618 -0.878886,1.955126 -0.95556,2.10065 -1.254956,2.382364 -0.161751,0.152198 -0.629576,0.465817 -1.039664,0.696961 -0.97862,0.551601 -1.50738,0.946609 -2.187686,1.634237 -0.932548,0.942592 -1.783229,2.236243 -2.775033,4.220072 -0.702175,1.404394 -1.091976,2.616927 -1.345689,4.185672 -0.210256,1.300379 -0.256644,2.326857 -0.266958,5.915839 -0.01095,3.842645 -0.01216,3.851327 -0.3889255,4.229515 C 9.1958692,83.758552 8.2194629,83.353777 7.133471,82.217588 6.4950042,81.549656 6.2398194,81.158988 5.3791408,79.532293 3.0541384,75.13691 1.857892,72.164854 1.054208,68.78678 0.228339,65.315484 -0.160648,60.932417 0.061783,57.604097 0.536078,50.506763 2.5334184,44.231564 6.1066625,38.612307 11.868955,29.550568 21.128523,23.556699 31.192323,22.373937 c 0.459627,-0.05403 1.077474,-0.133424 1.372966,-0.176378 0.731037,-0.106338 4.641345,-0.106338 5.37243,0 0.295504,0.04298 0.913295,0.122216 1.372982,0.176047 4.488716,0.525682 9.052463,2.09154 13.102763,4.495656 1.010194,0.599636 3.162718,2.098778 4.029235,2.805993 4.413453,3.602548 7.880626,8.042099 10.297882,13.185231 2.154093,4.584152 3.32121,9.232927 3.709162,14.774866 0.07212,1.027725 0.02931,4.571075 -0.06239,5.154037 -0.03199,0.206184 -0.102531,0.81058 -0.156813,1.343189 -0.590339,5.830597 -2.644054,11.722834 -5.826913,16.714961 -0.686923,1.07759 -0.814971,1.243623 -1.130215,1.467714 -0.195332,0.138904 -0.46555,0.398806 -0.600106,0.577862 -0.134568,0.178513 -0.288669,0.34943 -0.342379,0.37873 -0.05376,0.02985 -0.272383,0.162235 -0.486166,0.294086 -0.403691,0.250134 -0.759631,0.338578 -1.014645,0.252305 z M 33.308794,55.263531 c 0.604229,-0.325121 1.23316,-1.282635 1.458279,-2.220127 0.407485,-1.69696 0.241185,-3.398208 -0.553122,-5.657728 -0.429086,-1.220726 -0.429621,-1.227509 -0.123061,-1.630384 0.340639,-0.447694 0.683505,-1.227074 0.837216,-1.903091 0.09791,-0.430764 0.121019,-0.697612 0.103626,-1.195116 -0.0208,-0.596689 -0.03345,-0.651979 -0.183011,-0.808518 -0.130931,-0.137113 -0.214866,-0.16804 -0.455723,-0.16804 -0.343948,0 -0.548512,0.123114 -1.178951,0.709657 -0.540205,0.502549 -0.886537,0.672489 -1.611768,0.790883 -0.586435,0.09577 -0.601578,0.09495 -1.397016,-0.07092 -0.706504,-0.147368 -1.014378,-0.17363 -2.53527,-0.216441 -0.952142,-0.02675 -1.752786,-0.03559 -1.779264,-0.0198 -0.02639,0.01585 -0.113599,0.01221 -0.193544,-0.009 -0.215948,-0.0567 -0.432833,-0.563049 -0.601626,-1.404719 -0.17282,-0.861366 -0.377055,-1.342809 -0.627022,-1.478132 -0.345091,-0.186707 -0.730173,0.08904 -1.032172,0.739283 -0.254261,0.547368 -0.374452,1.197503 -0.443791,2.400704 l -0.0512,0.88665 -0.449265,0.581444 c -0.510467,0.660606 -0.773411,1.077861 -1.075154,1.705966 -1.068417,2.224144 -1.154845,5.239877 -0.188765,6.584857 0.378356,0.526749 1.216874,1.332555 1.334889,1.282853 0.05096,-0.02149 0.401526,-0.10787 0.779055,-0.192079 0.59968,-0.133749 0.833422,-0.152631 1.848286,-0.149429 1.761421,0.0056 2.899019,0.133315 4.185294,0.470103 0.683347,0.178947 1.003967,0.307107 1.739066,0.695441 0.770319,0.406945 0.959034,0.46294 1.479925,0.439229 0.320559,-0.01455 0.523323,-0.06109 0.714045,-0.163754 z M 38.753993,42.1853 c 0.273089,-0.119157 0.664678,-0.291372 0.870154,-0.382636 1.24227,-0.551926 2.643676,-0.643949 5.177961,-0.340152 0.55812,0.06691 1.462074,0.138688 2.008798,0.159522 l 0.99403,0.03798 0.162335,-0.169885 c 0.139882,-0.146446 0.158285,-0.207379 0.133108,-0.441128 -0.01618,-0.149214 -0.140649,-0.497721 -0.276786,-0.774552 -0.319209,-0.648724 -0.343072,-0.871567 -0.190929,-1.77976 0.183279,-1.094194 0.167334,-1.937926 -0.05412,-2.873953 -0.23283,-0.984047 -0.549327,-1.645577 -1.404557,-2.936242 -0.780526,-1.177808 -1.042972,-1.657514 -1.404021,-2.566249 -0.358482,-0.902278 -0.512583,-1.198046 -0.78572,-1.508138 -0.912917,-1.036569 -3.098803,-1.479885 -4.600928,-0.933151 -0.801617,0.291751 -1.400044,0.854421 -1.829836,1.7204 -0.308032,0.620726 -0.446662,1.069126 -0.66126,2.138956 -0.217797,1.085403 -0.331688,1.469288 -0.922574,3.108787 -0.253871,0.704395 -0.498803,1.463429 -0.544267,1.686759 -0.151985,0.746446 -0.07225,1.908029 0.164403,2.394681 0.06397,0.131579 0.239178,0.412751 0.389253,0.624742 0.374939,0.52957 0.430765,0.694248 0.52713,1.554475 0.100585,0.89772 0.239556,1.206999 0.638576,1.420455 0.371351,0.198697 0.94656,0.14829 1.60923,-0.140857 z m -5.816817,-2.731142 c 0.405369,-0.243353 0.731961,-0.682907 1.086807,-1.462669 0.883678,-1.941885 1.332991,-3.785672 1.342162,-5.507428 0.0049,-0.800379 -0.04245,-1.025122 -0.213236,-1.025122 -0.142218,0 -0.64259,0.598535 -1.124694,1.345198 -0.753063,1.166466 -0.900097,1.308518 -2.28159,2.203634 -0.781876,0.506618 -1.014329,0.71747 -1.346662,1.221701 -0.276725,0.419805 -0.282538,0.438579 -0.282538,0.90727 0,0.416495 0.02578,0.533696 0.199625,0.90293 0.266253,0.565925 0.812478,1.170427 1.277043,1.413401 0.499785,0.261367 0.908791,0.261693 1.343083,10e-4 z M 51.58784,38.412705 c 0.352194,-0.200597 0.933314,-0.832067 1.184096,-1.286706 0.378891,-0.686814 0.507973,-1.444762 0.324585,-1.905044 -0.144225,-0.361801 -0.402937,-0.600379 -1.399789,-1.291046 -1.919365,-1.329679 -2.870206,-2.162289 -3.628864,-3.177697 -0.468846,-0.627508 -0.800425,-0.7981 -1.084094,-0.557677 -0.323819,0.274389 -0.189264,0.921106 0.630816,3.031359 0.28052,0.721975 0.589305,1.547585 0.686108,1.834671 0.241234,0.715246 0.773144,1.858707 1.048884,2.254854 0.125397,0.180195 0.299189,0.436624 0.386164,0.569885 0.08709,0.133315 0.254857,0.319533 0.37298,0.413836 0.47944,0.382691 0.943957,0.418393 1.479053,0.113563 z M 26.813036,33.551558 c 0.324147,-0.71861 0.611782,-1.330004 0.639124,-1.358653 0.02737,-0.02875 0.665115,-0.10933 1.417193,-0.179381 1.199299,-0.111714 1.550192,-0.175366 1.453012,-0.263592 -0.01411,-0.01292 -0.522787,-0.382256 -1.130166,-0.820726 -0.607428,-0.438469 -1.139277,-0.831361 -1.18198,-0.873141 -0.06337,-0.06197 -0.02214,-0.307813 0.223866,-1.333368 0.328489,-1.370146 0.331372,-1.38695 0.236904,-1.38695 -0.03564,0 -0.593866,0.309252 -1.24081,0.687222 -0.646871,0.377971 -1.208786,0.687194 -1.248716,0.687194 -0.03989,0 -0.586873,-0.281118 -1.215464,-0.624742 -0.628651,-0.343623 -1.152473,-0.624726 -1.164027,-0.624726 -0.06896,0 0.02141,0.354678 0.361365,1.419191 0.298751,0.935268 0.367288,1.216277 0.313407,1.28524 -0.03795,0.04857 -0.558327,0.475041 -1.156426,0.947693 -1.050793,0.830385 -1.254214,1.009495 -1.204347,1.060228 0.01289,0.01318 0.627837,0.042 1.366524,0.06419 0.738736,0.02214 1.406016,0.05421 1.482908,0.07103 0.114694,0.02512 0.246391,0.261422 0.73212,1.313564 0.328866,0.712426 0.622022,1.272598 0.659192,1.25963 0.03673,-0.01286 0.332174,-0.611284 0.656321,-1.329896 z M 14.879409,80.653309 c -0.423552,-0.119376 -0.625282,-0.235486 -0.874118,-0.503527 -0.29295,-0.315788 -0.425985,-0.699401 -0.338633,-0.976124 0.130226,-0.412914 0.376994,-0.578405 1.412426,-0.946283 1.927453,-0.685295 2.61693,-1.055343 3.207269,-1.722733 0.367118,-0.415193 0.584149,-0.836516 0.741229,-1.439446 0.08417,-0.323168 0.105207,-0.642213 0.102775,-1.561853 -0.0024,-1.056104 -0.02481,-1.290775 -0.252363,-2.721864 -0.485996,-3.053823 -0.455018,-4.083557 0.163758,-5.443729 0.811334,-1.783396 1.958274,-2.579759 3.715559,-2.579759 1.304397,0 2.659743,0.460607 3.89485,1.323601 0.891048,0.622572 1.287089,1.175908 1.334718,1.864622 0.02116,0.305479 0.0049,0.371513 -0.135918,0.546337 -0.210742,0.26218 -0.533904,0.349484 -1.136078,0.306945 -0.673471,-0.04753 -1.296418,-0.234834 -2.107752,-0.633695 -1.480148,-0.727617 -2.403914,-0.774172 -3.075962,-0.155073 -0.503315,0.463646 -0.728762,1.205424 -0.720346,2.36983 0.0049,0.653878 0.0405,0.943515 0.219475,1.780464 0.296368,1.385784 0.397561,2.008735 0.461695,2.842537 0.07553,0.98242 -0.045,2.1376 -0.300114,2.873792 -0.453059,1.307702 -0.7905,1.877426 -1.695487,2.861689 -0.464249,0.505697 -1.651385,1.33261 -2.351711,1.639174 -0.786973,0.344547 -1.648126,0.449267 -2.265333,0.275095 z m 31.254985,-0.288117 c -0.100099,-0.08356 -0.129021,-0.177428 -0.115667,-0.376016 0.01095,-0.15681 0.635159,-1.107434 1.285898,-1.956592 0.954087,-1.245251 1.467546,-2.517198 1.466792,-3.633801 -4.38e-4,-0.636732 -0.06446,-0.861312 -0.460612,-1.613888 -0.422519,-0.802712 -0.567169,-0.978676 -2.465323,-2.998695 -1.20397,-1.281225 -1.675212,-1.828267 -1.959964,-2.275093 -0.866955,-1.360336 -1.167275,-2.347855 -1.022345,-3.361365 0.128316,-0.897503 0.443621,-1.780086 0.991585,-2.775527 0.854914,-1.553064 1.67205,-2.225283 2.088816,-1.71823 0.217091,0.264136 0.23581,0.551547 0.08781,1.346338 -0.184531,0.990883 -0.220606,1.842374 -0.106909,2.522569 0.173512,1.038523 0.486749,1.520943 2.037708,3.138467 1.092511,1.139391 2.575577,2.882472 3.183285,3.741342 1.174219,1.65963 1.421535,3.638847 0.671938,5.378889 -0.716113,1.662451 -2.418387,3.426964 -4.172097,4.324956 -0.465988,0.238741 -0.63044,0.29083 -0.984969,0.313618 -0.298484,0.0179 -0.455516,0.0022 -0.525889,-0.05697 z M 25.10316,76.447128 c -0.357947,-0.09674 -0.626802,-0.392078 -0.626802,-0.688768 0,-0.10798 0.03661,-0.130874 0.208954,-0.130874 0.114937,0 0.208894,0.02957 0.208894,0.06522 0,0.03587 0.06592,0.1344 0.14656,0.21872 0.268588,0.281117 0.868256,0.152522 0.868256,-0.186164 0,-0.194086 -0.07249,-0.243896 -0.591045,-0.406186 -0.553936,-0.173358 -0.781925,-0.387682 -0.781925,-0.734997 0,-0.457459 0.32186,-0.705913 0.914535,-0.705913 0.2357,0 0.375254,0.03798 0.523335,0.142431 0.220935,0.155778 0.360331,0.389527 0.311559,0.522463 -0.05169,0.141237 -0.342975,0.09912 -0.483296,-0.06972 -0.254796,-0.306674 -0.741667,-0.277971 -0.777535,0.04579 -0.02116,0.191588 0.02834,0.22333 0.611612,0.391534 0.462838,0.133478 0.750302,0.418827 0.750302,0.744872 0,0.298318 -0.139615,0.572111 -0.34981,0.685838 -0.211241,0.114438 -0.697285,0.169235 -0.933594,0.105754 z m 2.251005,-0.0071 c -0.229728,-0.05697 -0.407595,-0.210905 -0.530328,-0.459251 -0.113843,-0.230493 -0.06422,-0.353716 0.142862,-0.353716 0.118221,0 0.214051,0.06299 0.332771,0.218666 0.144066,0.188984 0.201571,0.218665 0.423491,0.218665 0.284157,0 0.454422,-0.135866 0.454422,-0.36267 0,-0.165057 -0.177417,-0.286 -0.561149,-0.382473 -0.543562,-0.136626 -0.811773,-0.385839 -0.811773,-0.754206 0,-0.23033 0.180093,-0.506618 0.39002,-0.598426 0.271897,-0.118878 0.768097,-0.112371 1.021324,0.01378 0.21714,0.10781 0.410149,0.411286 0.355782,0.559468 -0.0568,0.154747 -0.33479,0.100975 -0.513569,-0.09934 -0.175908,-0.197069 -0.35442,-0.233315 -0.622898,-0.126533 -0.191915,0.07639 -0.201463,0.278893 -0.01885,0.400543 0.07383,0.04927 0.30358,0.138361 0.510418,0.197992 0.219913,0.06343 0.449216,0.179924 0.552148,0.280575 0.149747,0.146392 0.176067,0.218991 0.176067,0.485892 0,0.405859 -0.185031,0.653445 -0.562827,0.752901 -0.297025,0.07813 -0.449812,0.08031 -0.737933,0.0086 z m 2.52447,0.0071 c -0.431033,-0.116227 -0.700168,-0.420077 -0.804828,-0.90879 -0.1974,-0.921703 0.302656,-1.660226 1.124086,-1.660226 0.397828,0 0.649486,0.111665 0.885515,0.393 0.485302,0.578458 0.331578,1.744003 -0.273247,2.071295 -0.209331,0.113405 -0.696045,0.167661 -0.931526,0.104721 z m 0.773035,-0.585513 c 0.438305,-0.458871 0.284046,-1.381225 -0.259576,-1.551708 -0.739563,-0.231904 -1.217689,0.936462 -0.633431,1.547909 0.160936,0.168476 0.244116,0.206837 0.448291,0.206837 0.203262,0 0.287416,-0.03836 0.444716,-0.203092 z m 1.803086,0.551872 c -0.50385,-0.193598 -0.719041,-0.558654 -0.721266,-1.22344 -0.0012,-0.383233 0.02542,-0.519804 0.146276,-0.7497 0.361268,-0.686978 1.455348,-0.762615 1.810911,-0.125285 0.120775,0.216495 0.09377,0.275474 -0.153991,0.336571 -0.130226,0.03212 -0.181333,0.0096 -0.258542,-0.113733 -0.250308,-0.399783 -0.828435,-0.308789 -1.007105,0.158383 -0.244494,0.6395 0.02968,1.368365 0.514748,1.368365 0.24048,0 0.387685,-0.09436 0.499083,-0.319858 0.08052,-0.163104 0.117978,-0.185133 0.25437,-0.149918 0.256583,0.06625 0.286978,0.137058 0.162663,0.378621 -0.213722,0.415573 -0.785452,0.616874 -1.247147,0.439989 z m 9.183552,0.06023 c -0.03296,-0.01303 -0.133096,-0.04015 -0.222735,-0.06076 -0.245747,-0.05681 -0.562888,-0.382312 -0.676937,-0.694954 -0.07419,-0.203255 -0.09317,-0.388388 -0.0703,-0.686164 0.05656,-0.737167 0.471412,-1.153715 1.149055,-1.153715 0.782692,0 1.203252,0.522517 1.154091,1.433856 -0.03795,0.701953 -0.358106,1.068963 -1.004831,1.150895 -0.14774,0.01845 -0.295492,0.02388 -0.32838,0.01034 z m 0.509384,-0.503797 c 0.234886,-0.12713 0.356208,-0.39376 0.356208,-0.782908 0,-0.428322 -0.135431,-0.710742 -0.405199,-0.844654 -0.1929,-0.09582 -0.242864,-0.0981 -0.452585,-0.02046 -0.316813,0.117309 -0.469016,0.348725 -0.501843,0.763266 -0.05862,0.740477 0.446661,1.186055 1.003419,0.884754 z m -20.238179,0.383504 c 0,-0.0515 0.192681,-0.616114 0.428162,-1.254746 0.367179,-0.995877 0.44851,-1.166468 0.571463,-1.198752 0.308785,-0.08111 0.381603,0.02751 0.859413,1.278838 0.250296,0.655615 0.440313,1.207595 0.4223,1.226586 -0.01812,0.01845 -0.123329,0.03419 -0.233973,0.03419 -0.181442,0 -0.212311,-0.02714 -0.316217,-0.280845 l -0.11518,-0.281227 h -0.472374 c -0.505164,0 -0.549764,0.02339 -0.647747,0.343625 -0.04816,0.157134 -0.09268,0.190775 -0.276615,0.207053 -0.163211,0.01466 -0.219269,-0.0049 -0.219269,-0.07445 z m 1.432664,-0.97363 c 0,-0.133802 -0.251378,-0.751979 -0.305806,-0.751979 -0.06629,0 -0.218125,0.352088 -0.270911,0.628052 l -0.03515,0.184047 h 0.305964 c 0.168258,0 0.305915,-0.0267 0.305915,-0.06012 z m 10.963748,1.017959 c -0.02177,-0.02284 -0.03977,-0.584535 -0.03977,-1.248181 v -1.206619 l 0.150026,-0.03961 c 0.302388,-0.07944 0.327504,0.01503 0.327504,1.226586 0,0.611447 -0.01618,1.156212 -0.03625,1.210525 -0.036,0.09799 -0.323271,0.13923 -0.401514,0.0573 z m 0.736401,-0.0362 c 2.19e-4,-0.114268 0.819313,-2.293867 0.900548,-2.396255 0.10995,-0.138632 0.397232,-0.107591 0.495495,0.05361 0.08343,0.136897 0.931842,2.305913 0.931842,2.382635 0,0.02116 -0.102896,0.03798 -0.228537,0.03798 -0.211119,0 -0.23733,-0.02008 -0.343242,-0.265382 l -0.114694,-0.265491 -0.493585,-0.01834 -0.493549,-0.01834 -0.116153,0.283668 c -0.106545,0.260011 -0.133704,0.283885 -0.327237,0.283885 -0.129143,0 -0.210961,-0.03038 -0.210912,-0.07829 z m 1.432445,-0.999512 c -1.09e-4,-0.162017 -0.229728,-0.702875 -0.298423,-0.702875 -0.06872,0 -0.298313,0.540858 -0.298423,0.702875 0,0.05203 0.09937,0.07809 0.298423,0.07809 0.199018,0 0.298423,-0.02583 0.298423,-0.07809 z m 1.056109,1.037331 c -0.02275,-0.02361 -0.04123,-0.122029 -0.04123,-0.21872 0,-0.129029 0.158382,-0.38204 0.596907,-0.953119 0.328331,-0.427618 0.596968,-0.807759 0.596968,-0.844763 0,-0.0427 -0.183839,-0.06717 -0.503425,-0.06717 -0.454847,0 -0.50711,-0.01254 -0.54215,-0.127997 -0.07906,-0.260717 0.05279,-0.309387 0.839065,-0.309387 0.403691,0 0.776452,0.01666 0.828375,0.03792 0.224194,0.09002 0.101436,0.362616 -0.532336,1.181823 -0.344763,0.445577 -0.626802,0.830818 -0.626802,0.856103 0,0.07227 0.227831,0.109391 0.776014,0.126316 0.497441,0.01497 0.507426,0.01834 0.507426,0.17184 v 0.156375 l -0.928802,0.01682 c -0.510807,0.0092 -0.947313,-0.0022 -0.969996,-0.02604 z m 2.264566,-0.05518 c -0.02056,-0.05622 -0.03746,-0.602441 -0.03746,-1.21389 0,-1.212913 0.02505,-1.306022 0.328756,-1.22626 l 0.15128,0.03961 -0.01618,1.232338 -0.01618,1.232065 -0.186381,0.01899 c -0.129301,0.01356 -0.197838,-0.01248 -0.223878,-0.08318 z m 3.632768,-0.04504 c -0.01837,-0.07732 -0.02542,-0.629516 -0.0163,-1.227128 0.01411,-0.913781 0.03211,-1.096526 0.112261,-1.149321 0.219476,-0.144763 0.372762,-0.0015 0.819204,0.766197 0.24031,0.413184 0.461914,0.751219 0.492454,0.751219 0.03126,0 0.05546,-0.313619 0.05546,-0.710796 0,-0.762181 0.05047,-0.90217 0.295662,-0.820727 0.117856,0.03918 0.122247,0.08573 0.122247,1.285838 v 1.245088 h -0.205865 c -0.236515,0 -0.301087,-0.07602 -0.807589,-0.952523 -0.173792,-0.300705 -0.33918,-0.546662 -0.367616,-0.546662 -0.02822,0 -0.05157,0.292892 -0.05157,0.65084 0,0.358003 -0.01618,0.695334 -0.03625,0.749702 -0.02165,0.05849 -0.106423,0.09864 -0.207811,0.09864 -0.128328,0 -0.179922,-0.03527 -0.204552,-0.140369 z m 2.518011,0.09913 c -0.02165,-0.02317 -0.04001,-0.582365 -0.04001,-1.243026 0,-1.037655 0.01289,-1.206293 0.0945,-1.239065 0.144006,-0.05785 1.536132,-0.0433 1.627024,0.01671 0.04391,0.02919 0.07079,0.120082 0.05972,0.202062 -0.01958,0.145361 -0.03661,0.149593 -0.661855,0.166847 l -0.641714,0.01753 v 0.279002 0.279055 l 0.522289,7.05e-4 c 0.586495,7.6e-4 0.690839,0.04129 0.661855,0.255996 -0.01958,0.144167 -0.03953,0.149702 -0.605043,0.167011 l -0.584915,0.01796 0.01788,0.356917 0.01788,0.356917 0.636083,0.01753 c 0.656261,0.01834 0.754426,0.06142 0.668959,0.294682 -0.02834,0.07705 -0.183778,0.09387 -0.883606,0.09387 -0.46707,0 -0.867124,-0.01845 -0.889042,-0.04178 z"
         id="path1113" />
      <path
         style="fill:#ff7700;fill-opacity:1;stroke-width:0.54259312"
         inkscape:connector-curvature="0"
         d="m 26.121941,34.836093 c -0.07748,-0.10624 -0.258444,-0.463862 -0.630548,-1.245793 -0.580366,-1.219424 -0.612378,-1.273087 -0.77076,-1.292728 -0.133096,-0.01655 -0.696799,-0.04156 -1.701837,-0.07558 -0.58101,-0.01986 -1.005645,-0.03955 -1.068806,-0.05009 -0.02104,-0.0033 -0.03831,-0.01192 -0.03831,-0.01818 0,-0.02246 0.09925,-0.125665 0.22968,-0.239012 0.166251,-0.144492 0.358434,-0.300923 0.818547,-0.666087 0.694792,-0.551438 1.215524,-0.975475 1.297075,-1.056266 0.01715,-0.01687 0.03442,-0.04687 0.03856,-0.06652 0.01946,-0.09339 -0.05473,-0.379924 -0.303361,-1.170319 -0.345796,-1.099293 -0.440325,-1.450069 -0.398047,-1.477389 0.01447,-0.0092 0.23407,0.104465 0.843784,0.436967 0.609715,0.332447 1.361793,0.727943 1.463375,0.769559 l 0.08538,0.03499 0.150124,-0.07683 c 0.204722,-0.104721 0.482371,-0.260283 1.080531,-0.605263 0.278561,-0.160662 0.615078,-0.353173 0.747846,-0.42778 0.505103,-0.283846 0.543744,-0.298893 0.551442,-0.215035 0.0061,0.06368 -0.05339,0.342002 -0.238631,1.120568 -0.308627,1.297666 -0.339448,1.479869 -0.262567,1.552468 0.045,0.04248 0.522848,0.394302 1.380741,1.016494 0.99414,0.721106 0.936246,0.678458 0.936246,0.690287 0,0.0209 -0.05777,0.04742 -0.153335,0.0707 -0.184435,0.04493 -0.490885,0.08323 -1.295275,0.161693 -0.831038,0.081 -1.349763,0.145849 -1.41324,0.176505 -0.03697,0.01786 -0.165437,0.27949 -0.542869,1.1051 -0.407376,0.891046 -0.659252,1.413727 -0.747371,1.55084 l -0.02639,0.04096 z"
         id="path1115" />
      <path
         id="path1221"
         d="m 38.295498,95.271311 c -0.526425,-0.285946 -0.793164,-0.851871 -0.724579,-1.538794 0.06921,-0.692349 0.399677,-1.110146 0.981393,-1.240368 0.391528,-0.0879 0.848942,0.0044 1.128428,0.227347 0.613886,0.489961 0.654801,1.752574 0.07456,2.301137 -0.133267,0.125882 -0.309881,0.256104 -0.392356,0.28866 -0.234994,0.09332 -0.866249,0.07108 -1.067492,-0.03852 z m 0.827559,-0.425936 c 0.392137,-0.17146 0.571414,-0.618013 0.486385,-1.211068 -0.0298,-0.207813 -0.09645,-0.346174 -0.23885,-0.494844 -0.173026,-0.181226 -0.236248,-0.206729 -0.508035,-0.206729 -0.271774,0 -0.334996,0.02551 -0.508022,0.206729 -0.449264,0.469885 -0.314003,1.453606 0.23435,1.7032 0.235263,0.107432 0.29441,0.107432 0.534172,0.0033 z m -9.091026,-0.866521 c -0.0024,-0.730331 0.01776,-1.363536 0.045,-1.407487 0.03734,-0.06023 0.262191,-0.07542 0.910534,-0.06239 l 0.860979,0.01737 0.01873,0.20293 0.01885,0.202929 h -0.588766 c -0.661856,0 -0.732071,0.03581 -0.732071,0.374933 0,0.329896 0.07675,0.374931 0.642542,0.374931 h 0.49924 l -0.01885,0.20293 -0.01885,0.20293 -0.537225,0.03146 -0.537273,0.03146 -0.01715,0.577861 -0.01715,0.577862 H 30.29849 30.036421 l -0.0049,-1.327725 z m 2.381542,-0.06239 0.519747,-1.390124 h 0.289642 0.28963 l 0.407765,1.061855 c 0.224255,0.584372 0.460551,1.209983 0.525172,1.390123 l 0.117369,0.328269 h -0.28367 -0.283609 L 33.889561,94.99405 33.783503,94.681516 h -0.527458 c -0.575586,0 -0.597503,0.01248 -0.725613,0.390667 -0.07626,0.225176 -0.08976,0.2344 -0.358056,0.2344 h -0.278732 z m 1.113018,0.238741 c 0.04549,-0.124254 -0.214975,-0.848073 -0.305101,-0.848073 -0.09,0 -0.350564,0.723819 -0.305039,0.848073 0.02177,0.05915 0.124083,0.08898 0.305039,0.08898 0.181017,0 0.283342,-0.02985 0.305101,-0.08898 z m 1.409981,-0.238741 0.01618,-1.390124 0.220996,-0.01899 c 0.254151,-0.02225 0.296477,0.02822 0.902822,1.079217 0.191318,0.331525 0.379378,0.59197 0.417909,0.578405 0.04658,-0.01627 0.07991,-0.294085 0.09985,-0.831253 l 0.0298,-0.807378 0.1726,-0.02062 c 0.09767,-0.01248 0.194895,0.01519 0.224036,0.06239 0.02834,0.04557 0.04938,0.680411 0.04695,1.410743 l -0.0049,1.327182 -0.279218,-0.0011 -0.279218,-0.0016 -0.470476,-0.810634 c -0.258773,-0.445468 -0.507281,-0.810634 -0.552197,-0.810634 -0.06495,0 -0.08161,0.166576 -0.08161,0.812263 v 0.812261 h -0.239945 -0.239933 z m 10.457505,1.145414 c -0.01374,-0.01411 -0.02457,-0.08953 -0.02457,-0.167661 0,-0.215953 0.156971,-0.337493 0.437053,-0.337493 0.353775,-5.43e-4 0.581448,-0.172002 0.7968,-0.599566 0.17423,-0.346718 2.705913,-8.632114 2.705913,-8.856205 0,-0.05643 -0.03697,-0.102555 -0.08271,-0.102555 -0.156168,0 -0.810094,0.508409 -1.130385,0.879001 -0.341187,0.394465 -0.400006,0.425393 -0.519431,0.275094 -0.11068,-0.139988 -0.01374,-0.319045 0.453606,-0.83722 0.442113,-0.490506 0.785514,-0.772654 1.278953,-1.049377 l 0.328319,-0.184482 0.222139,-0.771566 c 0.122186,-0.423767 0.256486,-0.806836 0.298484,-0.850244 0.107153,-0.111228 1.345895,-0.557786 1.397502,-0.503527 0.02335,0.02441 -0.09657,0.410744 -0.266302,0.858925 -0.16973,0.447639 -0.308627,0.851329 -0.308627,0.896363 0,0.05805 0.137219,0.09279 0.462606,0.118282 1.028597,0.07922 1.606566,0.53988 1.836356,1.463374 0.395225,1.587628 -0.651116,3.545304 -2.372328,4.43787 -0.471996,0.244708 -1.285398,0.520889 -1.790988,0.607161 l -0.222735,0.03852 -0.295662,0.981551 c -0.162554,0.539338 -0.39137,1.302222 -0.50846,1.694518 -0.253774,0.849702 -0.277321,1.262613 -0.08027,1.406944 0.07298,0.05372 0.254309,0.09767 0.402925,0.09821 0.148676,0.0011 0.304176,0.02333 0.345578,0.051 0.0911,0.06078 0.03333,0.445468 -0.06787,0.453065 -0.281176,0.02008 -3.276074,0.02062 -3.295607,5.42e-4 z m 4.541672,-5.531195 c 1.147255,-0.560499 1.925179,-1.560498 2.12523,-2.731956 0.147959,-0.866522 -0.107153,-1.825283 -0.562997,-2.116113 -0.216216,-0.138362 -0.708134,-0.164949 -0.802553,-0.04341 -0.10095,0.12968 -1.573618,4.995112 -1.539818,5.087353 0.04184,0.11394 0.25431,0.06078 0.780138,-0.195876 z m -30.792694,0.851324 c -0.219536,-0.253933 -0.08563,-0.874659 0.689902,-3.196958 0.576012,-1.724904 0.628323,-1.950622 0.499509,-2.156265 -0.05339,-0.08573 -0.151377,-0.155182 -0.217688,-0.155182 -0.269609,0 -1.000816,0.879001 -1.844212,2.217578 -0.583832,0.926749 -0.750521,1.280521 -1.103859,2.342917 l -0.301305,0.905588 -0.501844,0.01845 c -0.276007,0.01034 -0.527726,-0.0086 -0.559349,-0.04178 -0.03685,-0.03907 0.189847,-0.829625 0.632167,-2.205099 0.37928,-1.179597 0.732557,-2.320671 0.784978,-2.535538 0.115667,-0.474226 0.0613,-0.639717 -0.210146,-0.639717 -0.220461,0 -0.569237,0.323386 -1.110914,1.029842 -0.916274,1.195333 -1.511064,2.30385 -1.903736,3.547474 -0.12176,0.385783 -0.247972,0.736842 -0.28041,0.779705 -0.07529,0.09983 -0.948347,0.106351 -1.042377,0.0081 -0.04926,-0.05149 0.144602,-0.726481 0.737435,-2.56967 0.513179,-1.595223 0.797615,-2.570264 0.786048,-2.693975 -0.03126,-0.33478 -0.188923,-0.278892 -0.709217,0.250679 -0.39778,0.405317 -0.495336,0.475854 -0.580037,0.420509 -0.233317,-0.153011 -0.159514,-0.323386 0.386055,-0.889309 0.594681,-0.61693 0.948785,-0.856755 1.406076,-0.952252 0.376289,-0.07813 0.589099,-0.01248 0.740475,0.229517 0.142109,0.226804 0.07006,0.558328 -0.390713,1.793813 -0.199844,0.536082 -0.363323,0.990233 -0.363323,1.009766 0,0.01953 0.03503,0.03472 0.0776,0.03472 0.04269,0 0.191538,-0.209441 0.330764,-0.465544 0.375206,-0.689636 0.865604,-1.386868 1.306622,-1.856212 0.627399,-0.667932 1.192124,-0.915355 1.641181,-0.718935 0.51948,0.226803 0.534075,0.741724 0.06215,2.186107 -0.27282,0.835051 -0.318175,1.116657 -0.144492,0.897991 0.03515,-0.04449 0.239008,-0.38307 0.453059,-0.752575 0.877269,-1.513836 1.580842,-2.239825 2.3102,-2.383069 0.286005,-0.05589 0.613777,0.09495 0.770481,0.355397 0.220618,0.366793 0.145684,0.780792 -0.544596,3.006509 -0.631144,2.03581 -0.654314,2.164405 -0.399628,2.217036 0.130882,0.02659 0.418724,-0.248507 0.743844,-0.711882 0.20955,-0.298969 0.315901,-0.400434 0.405162,-0.38687 0.08052,0.01192 0.127125,0.07271 0.139226,0.18177 0.0135,0.123168 -0.07249,0.281606 -0.344434,0.635376 -0.661965,0.861095 -1.369406,1.35594 -1.938911,1.35594 -0.227454,0 -0.340043,-0.03093 -0.411827,-0.11394 z m 4.258804,-0.0049 c -0.526205,-0.301139 -0.716332,-0.724904 -0.716332,-1.596851 0,-1.358654 0.623714,-2.87086 1.611784,-3.908298 0.55767,-0.585458 1.018988,-0.867606 1.629347,-0.996743 0.451441,-0.09604 0.778507,-0.03364 1.028219,0.195876 0.38535,0.353769 0.413068,0.880085 0.08404,1.594138 -0.379329,0.823114 -1.469882,1.526857 -2.690831,1.735754 -0.119802,0.02062 -0.250843,0.07868 -0.291101,0.12968 -0.08611,0.108515 -0.151376,1.103092 -0.09353,1.425934 0.0225,0.125341 0.128,0.321759 0.238851,0.444386 0.175203,0.194246 0.233097,0.220293 0.49007,0.219207 0.400711,-0.0022 0.766795,-0.190994 1.164733,-0.601737 0.297936,-0.307107 0.350406,-0.338578 0.462619,-0.275636 0.183717,0.10309 0.156752,0.249051 -0.107397,0.583829 -0.336236,0.425935 -0.69484,0.723277 -1.138948,0.944655 -0.331311,0.165492 -0.466523,0.195876 -0.925238,0.209442 -0.436566,0.01303 -0.576388,-0.0066 -0.746167,-0.103638 z m 1.584102,-3.664673 c 0.675855,-0.334237 1.10212,-0.937059 1.10212,-1.558328 0,-0.767769 -0.632556,-0.791643 -1.153884,-0.04286 -0.365646,0.52523 -0.811067,1.618011 -0.72127,1.770481 0.05291,0.08953 0.406731,0.01248 0.773034,-0.169289 z m 2.538031,3.618554 c -0.10995,-0.145416 -0.128912,-0.230061 -0.102896,-0.459577 0.01751,-0.15464 0.639939,-2.218121 1.382907,-4.585998 0.817307,-2.603905 1.352306,-4.404227 1.354312,-4.556697 0.0049,-0.327727 -0.160875,-0.478026 -0.525062,-0.478026 -0.23733,0 -0.26202,-0.01411 -0.26202,-0.151382 0,-0.353772 -0.01715,-0.348345 1.166898,-0.348345 0.688711,0 1.108578,0.02388 1.132551,0.06457 0.0208,0.03527 -0.608729,2.114486 -1.39929,4.62018 -0.897009,2.842645 -1.437384,4.647853 -1.437384,4.801407 0,0.447639 0.2808,0.386868 0.803636,-0.173087 0.162882,-0.174173 0.32664,-0.316875 0.36381,-0.316875 0.03722,0 0.115667,0.05534 0.174497,0.123169 0.103261,0.119911 0.10168,0.130765 -0.04622,0.333695 -0.215571,0.295713 -0.960826,0.878457 -1.385291,1.083015 -0.224802,0.10798 -0.493597,0.18177 -0.721926,0.197505 -0.341881,0.02333 -0.371837,0.01466 -0.498584,-0.153554 z m 3.873249,0.06239 c -0.08404,-0.05426 -0.216873,-0.196962 -0.295054,-0.316334 -0.587846,-0.897991 0.36207,-3.788925 1.724734,-5.249044 0.469455,-0.502984 0.899344,-0.795985 1.365539,-0.930005 0.316606,-0.09116 0.421388,-0.09604 0.682909,-0.03256 0.169888,0.0407 0.395992,0.144329 0.502501,0.228974 0.106423,0.08519 0.219584,0.154638 0.251377,0.154638 0.03175,0 0.113235,-0.09821 0.181017,-0.218665 l 0.12333,-0.218665 h 0.449702 c 0.266897,0 0.449702,0.02604 0.449702,0.06402 0,0.03527 -0.18964,0.64677 -0.421436,1.358653 -0.362289,1.113401 -0.967552,3.279976 -1.099784,3.937055 -0.02578,0.128595 -0.01447,0.239285 0.0298,0.295171 0.111167,0.13999 0.359577,-0.02875 0.689903,-0.4688 0.29582,-0.393923 0.378514,-0.438958 0.507061,-0.277265 0.113356,0.143245 -0.05875,0.445469 -0.549217,0.963645 -0.503035,0.531741 -1.00809,0.812262 -1.462511,0.812262 -0.271398,0 -0.33136,-0.02225 -0.413726,-0.154096 -0.114207,-0.182311 -0.08088,-0.392837 0.244871,-1.546933 0.113721,-0.402604 0.206839,-0.747151 0.206839,-0.765057 0,-0.130764 -0.164184,0.05263 -0.516111,0.576234 -0.51313,0.763971 -1.216169,1.504612 -1.635866,1.723818 -0.367178,0.190994 -0.779002,0.217038 -1.015408,0.06349 z m 1.304879,-0.985892 c 0.5706,-0.314704 1.947316,-2.344003 2.223067,-3.276719 0.257289,-0.87032 0.196038,-1.396635 -0.186599,-1.603364 -0.239021,-0.12968 -0.395116,-0.11394 -0.694525,0.07 -0.704449,0.431905 -1.608512,2.378729 -1.80607,3.888766 -0.07456,0.570264 -0.0422,0.786217 0.138034,0.918067 0.152581,0.111774 0.129837,0.111774 0.326093,0.0038 z m 11.303516,0.93109 c -0.07079,-0.09441 -0.128377,-0.202931 -0.12789,-0.241453 0.0024,-0.231146 0.251767,-1.104178 0.777218,-2.727617 0.328696,-1.015191 0.601249,-1.948453 0.605798,-2.074335 0.0085,-0.259358 -0.09085,-0.421594 -0.260597,-0.421594 -0.362995,0 -1.799515,1.926748 -2.495717,3.347799 -0.133315,0.271839 -0.349434,0.849701 -0.480243,1.284319 -0.146451,0.486707 -0.273964,0.804665 -0.331688,0.827996 -0.05157,0.02062 -0.293874,0.03744 -0.538478,0.03744 -0.320182,0 -0.453436,-0.02388 -0.4759,-0.08519 -0.01715,-0.04667 0.306073,-1.13619 0.718229,-2.421594 0.412156,-1.28486 0.749366,-2.4357 0.749366,-2.557241 0,-0.257731 -0.08696,-0.371134 -0.284095,-0.371134 -0.289532,0 -1.146124,1.007053 -1.947425,2.289743 -0.471181,0.754204 -0.620673,1.081931 -1.020995,2.239282 l -0.302497,0.87466 -0.521645,0.0179 c -0.395554,0.01411 -0.529197,-0.0022 -0.552634,-0.0662 -0.01715,-0.04666 0.332612,-1.209439 0.776999,-2.584371 0.444375,-1.374931 0.807966,-2.571891 0.807966,-2.659792 0,-0.204014 -0.153384,-0.268583 -0.33732,-0.142158 -0.07772,0.05317 -0.295552,0.264785 -0.484049,0.469342 -0.188497,0.205101 -0.372117,0.373304 -0.408033,0.373304 -0.036,0 -0.107761,-0.04883 -0.159574,-0.109063 -0.12952,-0.150297 -0.0467,-0.29734 0.480571,-0.852955 0.502111,-0.529028 0.949478,-0.825828 1.392187,-0.922951 0.392233,-0.08627 0.632555,0.0044 0.761686,0.285946 0.103748,0.226805 0.02275,0.557244 -0.443669,1.814432 -0.178353,0.480194 -0.324257,0.895821 -0.324257,0.922951 0,0.02659 0.03357,0.04829 0.07456,0.04775 0.04099,-0.0011 0.208955,-0.244166 0.37309,-0.540965 1.04948,-1.896905 2.176229,-2.855667 2.921265,-2.48562 0.527178,0.262073 0.511719,0.848616 -0.06544,2.482907 -0.212592,0.601735 -0.224742,0.83071 -0.02992,0.565925 0.05461,-0.07434 0.273904,-0.435161 0.48731,-0.801953 0.528698,-0.908843 1.064841,-1.602277 1.494025,-1.93326 0.651006,-0.501355 1.264734,-0.51058 1.548829,-0.02333 0.233645,0.400976 0.175641,0.695062 -0.661417,3.349428 -0.263261,0.83505 -0.470318,1.577318 -0.460065,1.649483 0.01095,0.07163 0.06215,0.158979 0.115302,0.193705 0.141938,0.09332 0.406452,-0.128052 0.77678,-0.648942 0.311389,-0.438415 0.42691,-0.50027 0.550081,-0.295713 0.08222,0.136734 0.0085,0.278351 -0.410149,0.797069 -0.637494,0.787847 -1.238524,1.196961 -1.823816,1.241454 -0.307545,0.02333 -0.345091,0.01082 -0.463482,-0.1465 z m 10.930706,0.03038 c -0.689477,-0.367335 -1.023111,-1.201301 -0.948991,-2.371675 0.121018,-1.912098 1.007591,-3.526856 2.202925,-4.013562 0.432991,-0.176343 1.112859,-0.179597 1.476389,-0.0075 0.902336,0.427562 1.164405,1.364078 0.85405,3.053171 -0.272383,1.483992 -1.064573,2.829081 -1.919158,3.257729 -0.478017,0.239827 -1.293536,0.279979 -1.665215,0.08193 z m 0.926211,-0.804123 c 0.580573,-0.313077 1.283234,-1.537166 1.7428,-3.035267 0.3299,-1.074876 0.307107,-1.614214 -0.0765,-1.821485 -0.575148,-0.311448 -1.280521,0.31579 -1.999456,1.77862 -0.485072,0.98752 -0.684211,1.649483 -0.692348,2.302766 -0.0049,0.484536 0.0024,0.521432 0.168745,0.703201 0.211071,0.230602 0.515466,0.256647 0.856762,0.07216 z m 4.967438,-5.746062 c -0.565928,-0.191535 -1.228429,-0.772652 -1.424856,-1.25122 -0.276712,-0.672273 -0.30656,-1.876286 -0.08842,-3.565922 0.136185,-1.059142 0.136732,-2.71378 0.0011,-3.498695 -0.233316,-1.348833 -0.643514,-2.561909 -1.324465,-3.917955 -0.46555,-0.92713 -0.867064,-1.610907 -2.170378,-3.694572 -3.408027,-5.450022 -4.726204,-8.321155 -5.239821,-11.413339 -0.121627,-0.732228 -0.135808,-2.727832 -0.02785,-3.933094 0.0371,-0.412316 0.08453,-1.24167 0.105816,-1.842972 0.129301,-3.663154 -0.95888,-6.141394 -3.061318,-6.971724 -0.761419,-0.300706 -1.342588,-0.398427 -2.797279,-0.470321 -2.66777,-0.131849 -3.868638,0.05117 -5.029516,0.766522 -0.493111,0.303852 -1.374174,1.238685 -1.772051,1.880139 -1.212046,1.954313 -1.947048,4.818824 -1.951706,7.606668 -0.0024,1.222734 0.02968,1.430493 0.448012,2.942971 0.314648,1.137275 0.395821,1.684535 0.395821,2.668907 0,2.297123 -0.562608,4.663642 -1.938959,8.155555 -1.173137,2.976557 -2.018929,4.79457 -2.414045,5.189252 l -0.183717,0.18345 -0.174291,-0.174714 c -0.232222,-0.232827 -0.507423,-0.786435 -0.639108,-1.285512 -0.08344,-0.316223 -0.106301,-0.627292 -0.103382,-1.405642 0.0049,-1.203636 0.102531,-1.927509 0.675632,-4.990392 0.566464,-3.027183 0.624796,-3.456645 0.624857,-4.599236 0,-1.051654 -0.07565,-1.484156 -0.36533,-2.088441 -0.339667,-0.708519 -0.918886,-1.22306 -1.605103,-1.425827 -0.439826,-0.12995 -3.863859,-0.823981 -4.591575,-0.930655 -0.802505,-0.117637 -2.105977,-0.102336 -2.716069,0.03175 -1.394023,0.306726 -2.590172,1.157676 -3.408452,2.424848 -0.140321,0.217308 -0.388609,0.577807 -0.551771,0.801139 -0.16315,0.22333 -0.416766,0.673141 -0.563484,0.999618 -0.878886,1.955126 -0.95556,2.10065 -1.254956,2.382364 -0.161751,0.152198 -0.629576,0.465817 -1.039664,0.696961 -0.97862,0.551601 -1.50738,0.946609 -2.187686,1.634237 -0.932548,0.942592 -1.783229,2.236243 -2.775033,4.220072 -0.702175,1.404394 -1.091976,2.616927 -1.345689,4.185672 -0.210256,1.300379 -0.256644,2.326857 -0.266958,5.915839 -0.01095,3.842645 -0.01216,3.851327 -0.3889255,4.229515 C 9.1958692,83.758552 8.2194629,83.353777 7.133471,82.217588 6.4950042,81.549656 6.2398194,81.158988 5.3791408,79.532293 3.0541384,75.13691 1.857892,72.164854 1.054208,68.78678 0.228339,65.315484 -0.160648,60.932417 0.061783,57.604097 0.536078,50.506763 2.5334184,44.231564 6.1066625,38.612307 11.868955,29.550568 21.128523,23.556699 31.192323,22.373937 c 0.459627,-0.05403 1.077474,-0.133424 1.372966,-0.176378 0.731037,-0.106338 4.641345,-0.106338 5.37243,0 0.295504,0.04298 0.913295,0.122216 1.372982,0.176047 4.488716,0.525682 9.052463,2.09154 13.102763,4.495656 1.010194,0.599636 3.162718,2.098778 4.029235,2.805993 4.413453,3.602548 7.880626,8.042099 10.297882,13.185231 2.154093,4.584152 3.32121,9.232927 3.709162,14.774866 0.07212,1.027725 0.02931,4.571075 -0.06239,5.154037 -0.03199,0.206184 -0.102531,0.81058 -0.156813,1.343189 -0.590339,5.830597 -2.644054,11.722834 -5.826913,16.714961 -0.686923,1.07759 -0.814971,1.243623 -1.130215,1.467714 -0.195332,0.138904 -0.46555,0.398806 -0.600106,0.577862 -0.134568,0.178513 -0.288669,0.34943 -0.342379,0.37873 -0.05376,0.02985 -0.272383,0.162235 -0.486166,0.294086 -0.403691,0.250134 -0.759631,0.338578 -1.014645,0.252305 z M 33.308794,55.263531 c 0.604229,-0.325121 1.23316,-1.282635 1.458279,-2.220127 0.407485,-1.69696 0.241185,-3.398208 -0.553122,-5.657728 -0.429086,-1.220726 -0.429621,-1.227509 -0.123061,-1.630384 0.340639,-0.447694 0.683505,-1.227074 0.837216,-1.903091 0.09791,-0.430764 0.121019,-0.697612 0.103626,-1.195116 -0.0208,-0.596689 -0.03345,-0.651979 -0.183011,-0.808518 -0.130931,-0.137113 -0.214866,-0.16804 -0.455723,-0.16804 -0.343948,0 -0.548512,0.123114 -1.178951,0.709657 -0.540205,0.502549 -0.886537,0.672489 -1.611768,0.790883 -0.586435,0.09577 -0.601578,0.09495 -1.397016,-0.07092 -0.706504,-0.147368 -1.014378,-0.17363 -2.53527,-0.216441 -0.952142,-0.02675 -1.752786,-0.03559 -1.779264,-0.0198 -0.02639,0.01585 -0.113599,0.01221 -0.193544,-0.009 -0.215948,-0.0567 -0.432833,-0.563049 -0.601626,-1.404719 -0.17282,-0.861366 -0.377055,-1.342809 -0.627022,-1.478132 -0.345091,-0.186707 -0.730173,0.08904 -1.032172,0.739283 -0.254261,0.547368 -0.374452,1.197503 -0.443791,2.400704 l -0.0512,0.88665 -0.449265,0.581444 c -0.510467,0.660606 -0.773411,1.077861 -1.075154,1.705966 -1.068417,2.224144 -1.154845,5.239877 -0.188765,6.584857 0.378356,0.526749 1.216874,1.332555 1.334889,1.282853 0.05096,-0.02149 0.401526,-0.10787 0.779055,-0.192079 0.59968,-0.133749 0.833422,-0.152631 1.848286,-0.149429 1.761421,0.0056 2.899019,0.133315 4.185294,0.470103 0.683347,0.178947 1.003967,0.307107 1.739066,0.695441 0.770319,0.406945 0.959034,0.46294 1.479925,0.439229 0.320559,-0.01455 0.523323,-0.06109 0.714045,-0.163754 z M 38.753993,42.1853 c 0.273089,-0.119157 0.664678,-0.291372 0.870154,-0.382636 1.24227,-0.551926 2.643676,-0.643949 5.177961,-0.340152 0.55812,0.06691 1.462074,0.138688 2.008798,0.159522 l 0.99403,0.03798 0.162335,-0.169885 c 0.139882,-0.146446 0.158285,-0.207379 0.133108,-0.441128 -0.01618,-0.149214 -0.140649,-0.497721 -0.276786,-0.774552 -0.319209,-0.648724 -0.343072,-0.871567 -0.190929,-1.77976 0.183279,-1.094194 0.167334,-1.937926 -0.05412,-2.873953 -0.23283,-0.984047 -0.549327,-1.645577 -1.404557,-2.936242 -0.780526,-1.177808 -1.042972,-1.657514 -1.404021,-2.566249 -0.358482,-0.902278 -0.512583,-1.198046 -0.78572,-1.508138 -0.912917,-1.036569 -3.098803,-1.479885 -4.600928,-0.933151 -0.801617,0.291751 -1.400044,0.854421 -1.829836,1.7204 -0.308032,0.620726 -0.446662,1.069126 -0.66126,2.138956 -0.217797,1.085403 -0.331688,1.469288 -0.922574,3.108787 -0.253871,0.704395 -0.498803,1.463429 -0.544267,1.686759 -0.151985,0.746446 -0.07225,1.908029 0.164403,2.394681 0.06397,0.131579 0.239178,0.412751 0.389253,0.624742 0.374939,0.52957 0.430765,0.694248 0.52713,1.554475 0.100585,0.89772 0.239556,1.206999 0.638576,1.420455 0.371351,0.198697 0.94656,0.14829 1.60923,-0.140857 z m -5.816817,-2.731142 c 0.405369,-0.243353 0.731961,-0.682907 1.086807,-1.462669 0.883678,-1.941885 1.332991,-3.785672 1.342162,-5.507428 0.0049,-0.800379 -0.04245,-1.025122 -0.213236,-1.025122 -0.142218,0 -0.64259,0.598535 -1.124694,1.345198 -0.753063,1.166466 -0.900097,1.308518 -2.28159,2.203634 -0.781876,0.506618 -1.014329,0.71747 -1.346662,1.221701 -0.276725,0.419805 -0.282538,0.438579 -0.282538,0.90727 0,0.416495 0.02578,0.533696 0.199625,0.90293 0.266253,0.565925 0.812478,1.170427 1.277043,1.413401 0.499785,0.261367 0.908791,0.261693 1.343083,10e-4 z M 51.58784,38.412705 c 0.352194,-0.200597 0.933314,-0.832067 1.184096,-1.286706 0.378891,-0.686814 0.507973,-1.444762 0.324585,-1.905044 -0.144225,-0.361801 -0.402937,-0.600379 -1.399789,-1.291046 -1.919365,-1.329679 -2.870206,-2.162289 -3.628864,-3.177697 -0.468846,-0.627508 -0.800425,-0.7981 -1.084094,-0.557677 -0.323819,0.274389 -0.189264,0.921106 0.630816,3.031359 0.28052,0.721975 0.589305,1.547585 0.686108,1.834671 0.241234,0.715246 0.773144,1.858707 1.048884,2.254854 0.125397,0.180195 0.299189,0.436624 0.386164,0.569885 0.08709,0.133315 0.254857,0.319533 0.37298,0.413836 0.47944,0.382691 0.943957,0.418393 1.479053,0.113563 z M 26.813036,33.551558 c 0.324147,-0.71861 0.611782,-1.330004 0.639124,-1.358653 0.02737,-0.02875 0.665115,-0.10933 1.417193,-0.179381 1.199299,-0.111714 1.550192,-0.175366 1.453012,-0.263592 -0.01411,-0.01292 -0.522787,-0.382256 -1.130166,-0.820726 -0.607428,-0.438469 -1.139277,-0.831361 -1.18198,-0.873141 -0.06337,-0.06197 -0.02214,-0.307813 0.223866,-1.333368 0.328489,-1.370146 0.331372,-1.38695 0.236904,-1.38695 -0.03564,0 -0.593866,0.309252 -1.24081,0.687222 -0.646871,0.377971 -1.208786,0.687194 -1.248716,0.687194 -0.03989,0 -0.586873,-0.281118 -1.215464,-0.624742 -0.628651,-0.343623 -1.152473,-0.624726 -1.164027,-0.624726 -0.06896,0 0.02141,0.354678 0.361365,1.419191 0.298751,0.935268 0.367288,1.216277 0.313407,1.28524 -0.03795,0.04857 -0.558327,0.475041 -1.156426,0.947693 -1.050793,0.830385 -1.254214,1.009495 -1.204347,1.060228 0.01289,0.01318 0.627837,0.042 1.366524,0.06419 0.738736,0.02214 1.406016,0.05421 1.482908,0.07103 0.114694,0.02512 0.246391,0.261422 0.73212,1.313564 0.328866,0.712426 0.622022,1.272598 0.659192,1.25963 0.03673,-0.01286 0.332174,-0.611284 0.656321,-1.329896 z M 14.879409,80.653309 c -0.423552,-0.119376 -0.625282,-0.235486 -0.874118,-0.503527 -0.29295,-0.315788 -0.425985,-0.699401 -0.338633,-0.976124 0.130226,-0.412914 0.376994,-0.578405 1.412426,-0.946283 1.927453,-0.685295 2.61693,-1.055343 3.207269,-1.722733 0.367118,-0.415193 0.584149,-0.836516 0.741229,-1.439446 0.08417,-0.323168 0.105207,-0.642213 0.102775,-1.561853 -0.0024,-1.056104 -0.02481,-1.290775 -0.252363,-2.721864 -0.485996,-3.053823 -0.455018,-4.083557 0.163758,-5.443729 0.811334,-1.783396 1.958274,-2.579759 3.715559,-2.579759 1.304397,0 2.659743,0.460607 3.89485,1.323601 0.891048,0.622572 1.287089,1.175908 1.334718,1.864622 0.02116,0.305479 0.0049,0.371513 -0.135918,0.546337 -0.210742,0.26218 -0.533904,0.349484 -1.136078,0.306945 -0.673471,-0.04753 -1.296418,-0.234834 -2.107752,-0.633695 -1.480148,-0.727617 -2.403914,-0.774172 -3.075962,-0.155073 -0.503315,0.463646 -0.728762,1.205424 -0.720346,2.36983 0.0049,0.653878 0.0405,0.943515 0.219475,1.780464 0.296368,1.385784 0.397561,2.008735 0.461695,2.842537 0.07553,0.98242 -0.045,2.1376 -0.300114,2.873792 -0.453059,1.307702 -0.7905,1.877426 -1.695487,2.861689 -0.464249,0.505697 -1.651385,1.33261 -2.351711,1.639174 -0.786973,0.344547 -1.648126,0.449267 -2.265333,0.275095 z m 31.254985,-0.288117 c -0.100099,-0.08356 -0.129021,-0.177428 -0.115667,-0.376016 0.01095,-0.15681 0.635159,-1.107434 1.285898,-1.956592 0.954087,-1.245251 1.467546,-2.517198 1.466792,-3.633801 -4.38e-4,-0.636732 -0.06446,-0.861312 -0.460612,-1.613888 -0.422519,-0.802712 -0.567169,-0.978676 -2.465323,-2.998695 -1.20397,-1.281225 -1.675212,-1.828267 -1.959964,-2.275093 -0.866955,-1.360336 -1.167275,-2.347855 -1.022345,-3.361365 0.128316,-0.897503 0.443621,-1.780086 0.991585,-2.775527 0.854914,-1.553064 1.67205,-2.225283 2.088816,-1.71823 0.217091,0.264136 0.23581,0.551547 0.08781,1.346338 -0.184531,0.990883 -0.220606,1.842374 -0.106909,2.522569 0.173512,1.038523 0.486749,1.520943 2.037708,3.138467 1.092511,1.139391 2.575577,2.882472 3.183285,3.741342 1.174219,1.65963 1.421535,3.638847 0.671938,5.378889 -0.716113,1.662451 -2.418387,3.426964 -4.172097,4.324956 -0.465988,0.238741 -0.63044,0.29083 -0.984969,0.313618 -0.298484,0.0179 -0.455516,0.0022 -0.525889,-0.05697 z M 25.10316,76.447128 c -0.357947,-0.09674 -0.626802,-0.392078 -0.626802,-0.688768 0,-0.10798 0.03661,-0.130874 0.208954,-0.130874 0.114937,0 0.208894,0.02957 0.208894,0.06522 0,0.03587 0.06592,0.1344 0.14656,0.21872 0.268588,0.281117 0.868256,0.152522 0.868256,-0.186164 0,-0.194086 -0.07249,-0.243896 -0.591045,-0.406186 -0.553936,-0.173358 -0.781925,-0.387682 -0.781925,-0.734997 0,-0.457459 0.32186,-0.705913 0.914535,-0.705913 0.2357,0 0.375254,0.03798 0.523335,0.142431 0.220935,0.155778 0.360331,0.389527 0.311559,0.522463 -0.05169,0.141237 -0.342975,0.09912 -0.483296,-0.06972 -0.254796,-0.306674 -0.741667,-0.277971 -0.777535,0.04579 -0.02116,0.191588 0.02834,0.22333 0.611612,0.391534 0.462838,0.133478 0.750302,0.418827 0.750302,0.744872 0,0.298318 -0.139615,0.572111 -0.34981,0.685838 -0.211241,0.114438 -0.697285,0.169235 -0.933594,0.105754 z m 2.251005,-0.0071 c -0.229728,-0.05697 -0.407595,-0.210905 -0.530328,-0.459251 -0.113843,-0.230493 -0.06422,-0.353716 0.142862,-0.353716 0.118221,0 0.214051,0.06299 0.332771,0.218666 0.144066,0.188984 0.201571,0.218665 0.423491,0.218665 0.284157,0 0.454422,-0.135866 0.454422,-0.36267 0,-0.165057 -0.177417,-0.286 -0.561149,-0.382473 -0.543562,-0.136626 -0.811773,-0.385839 -0.811773,-0.754206 0,-0.23033 0.180093,-0.506618 0.39002,-0.598426 0.271897,-0.118878 0.768097,-0.112371 1.021324,0.01378 0.21714,0.10781 0.410149,0.411286 0.355782,0.559468 -0.0568,0.154747 -0.33479,0.100975 -0.513569,-0.09934 -0.175908,-0.197069 -0.35442,-0.233315 -0.622898,-0.126533 -0.191915,0.07639 -0.201463,0.278893 -0.01885,0.400543 0.07383,0.04927 0.30358,0.138361 0.510418,0.197992 0.219913,0.06343 0.449216,0.179924 0.552148,0.280575 0.149747,0.146392 0.176067,0.218991 0.176067,0.485892 0,0.405859 -0.185031,0.653445 -0.562827,0.752901 -0.297025,0.07813 -0.449812,0.08031 -0.737933,0.0086 z m 2.52447,0.0071 c -0.431033,-0.116227 -0.700168,-0.420077 -0.804828,-0.90879 -0.1974,-0.921703 0.302656,-1.660226 1.124086,-1.660226 0.397828,0 0.649486,0.111665 0.885515,0.393 0.485302,0.578458 0.331578,1.744003 -0.273247,2.071295 -0.209331,0.113405 -0.696045,0.167661 -0.931526,0.104721 z m 0.773035,-0.585513 c 0.438305,-0.458871 0.284046,-1.381225 -0.259576,-1.551708 -0.739563,-0.231904 -1.217689,0.936462 -0.633431,1.547909 0.160936,0.168476 0.244116,0.206837 0.448291,0.206837 0.203262,0 0.287416,-0.03836 0.444716,-0.203092 z m 1.803086,0.551872 c -0.50385,-0.193598 -0.719041,-0.558654 -0.721266,-1.22344 -0.0012,-0.383233 0.02542,-0.519804 0.146276,-0.7497 0.361268,-0.686978 1.455348,-0.762615 1.810911,-0.125285 0.120775,0.216495 0.09377,0.275474 -0.153991,0.336571 -0.130226,0.03212 -0.181333,0.0096 -0.258542,-0.113733 -0.250308,-0.399783 -0.828435,-0.308789 -1.007105,0.158383 -0.244494,0.6395 0.02968,1.368365 0.514748,1.368365 0.24048,0 0.387685,-0.09436 0.499083,-0.319858 0.08052,-0.163104 0.117978,-0.185133 0.25437,-0.149918 0.256583,0.06625 0.286978,0.137058 0.162663,0.378621 -0.213722,0.415573 -0.785452,0.616874 -1.247147,0.439989 z m 9.183552,0.06023 c -0.03296,-0.01303 -0.133096,-0.04015 -0.222735,-0.06076 -0.245747,-0.05681 -0.562888,-0.382312 -0.676937,-0.694954 -0.07419,-0.203255 -0.09317,-0.388388 -0.0703,-0.686164 0.05656,-0.737167 0.471412,-1.153715 1.149055,-1.153715 0.782692,0 1.203252,0.522517 1.154091,1.433856 -0.03795,0.701953 -0.358106,1.068963 -1.004831,1.150895 -0.14774,0.01845 -0.295492,0.02388 -0.32838,0.01034 z m 0.509384,-0.503797 c 0.234886,-0.12713 0.356208,-0.39376 0.356208,-0.782908 0,-0.428322 -0.135431,-0.710742 -0.405199,-0.844654 -0.1929,-0.09582 -0.242864,-0.0981 -0.452585,-0.02046 -0.316813,0.117309 -0.469016,0.348725 -0.501843,0.763266 -0.05862,0.740477 0.446661,1.186055 1.003419,0.884754 z m -20.238179,0.383504 c 0,-0.0515 0.192681,-0.616114 0.428162,-1.254746 0.367179,-0.995877 0.44851,-1.166468 0.571463,-1.198752 0.308785,-0.08111 0.381603,0.02751 0.859413,1.278838 0.250296,0.655615 0.440313,1.207595 0.4223,1.226586 -0.01812,0.01845 -0.123329,0.03419 -0.233973,0.03419 -0.181442,0 -0.212311,-0.02714 -0.316217,-0.280845 l -0.11518,-0.281227 h -0.472374 c -0.505164,0 -0.549764,0.02339 -0.647747,0.343625 -0.04816,0.157134 -0.09268,0.190775 -0.276615,0.207053 -0.163211,0.01466 -0.219269,-0.0049 -0.219269,-0.07445 z m 1.432664,-0.97363 c 0,-0.133802 -0.251378,-0.751979 -0.305806,-0.751979 -0.06629,0 -0.218125,0.352088 -0.270911,0.628052 l -0.03515,0.184047 h 0.305964 c 0.168258,0 0.305915,-0.0267 0.305915,-0.06012 z m 10.963748,1.017959 c -0.02177,-0.02284 -0.03977,-0.584535 -0.03977,-1.248181 v -1.206619 l 0.150026,-0.03961 c 0.302388,-0.07944 0.327504,0.01503 0.327504,1.226586 0,0.611447 -0.01618,1.156212 -0.03625,1.210525 -0.036,0.09799 -0.323271,0.13923 -0.401514,0.0573 z m 0.736401,-0.0362 c 2.19e-4,-0.114268 0.819313,-2.293867 0.900548,-2.396255 0.10995,-0.138632 0.397232,-0.107591 0.495495,0.05361 0.08343,0.136897 0.931842,2.305913 0.931842,2.382635 0,0.02116 -0.102896,0.03798 -0.228537,0.03798 -0.211119,0 -0.23733,-0.02008 -0.343242,-0.265382 l -0.114694,-0.265491 -0.493585,-0.01834 -0.493549,-0.01834 -0.116153,0.283668 c -0.106545,0.260011 -0.133704,0.283885 -0.327237,0.283885 -0.129143,0 -0.210961,-0.03038 -0.210912,-0.07829 z m 1.432445,-0.999512 c -1.09e-4,-0.162017 -0.229728,-0.702875 -0.298423,-0.702875 -0.06872,0 -0.298313,0.540858 -0.298423,0.702875 0,0.05203 0.09937,0.07809 0.298423,0.07809 0.199018,0 0.298423,-0.02583 0.298423,-0.07809 z m 1.056109,1.037331 c -0.02275,-0.02361 -0.04123,-0.122029 -0.04123,-0.21872 0,-0.129029 0.158382,-0.38204 0.596907,-0.953119 0.328331,-0.427618 0.596968,-0.807759 0.596968,-0.844763 0,-0.0427 -0.183839,-0.06717 -0.503425,-0.06717 -0.454847,0 -0.50711,-0.01254 -0.54215,-0.127997 -0.07906,-0.260717 0.05279,-0.309387 0.839065,-0.309387 0.403691,0 0.776452,0.01666 0.828375,0.03792 0.224194,0.09002 0.101436,0.362616 -0.532336,1.181823 -0.344763,0.445577 -0.626802,0.830818 -0.626802,0.856103 0,0.07227 0.227831,0.109391 0.776014,0.126316 0.497441,0.01497 0.507426,0.01834 0.507426,0.17184 v 0.156375 l -0.928802,0.01682 c -0.510807,0.0092 -0.947313,-0.0022 -0.969996,-0.02604 z m 2.264566,-0.05518 c -0.02056,-0.05622 -0.03746,-0.602441 -0.03746,-1.21389 0,-1.212913 0.02505,-1.306022 0.328756,-1.22626 l 0.15128,0.03961 -0.01618,1.232338 -0.01618,1.232065 -0.186381,0.01899 c -0.129301,0.01356 -0.197838,-0.01248 -0.223878,-0.08318 z m 3.632768,-0.04504 c -0.01837,-0.07732 -0.02542,-0.629516 -0.0163,-1.227128 0.01411,-0.913781 0.03211,-1.096526 0.112261,-1.149321 0.219476,-0.144763 0.372762,-0.0015 0.819204,0.766197 0.24031,0.413184 0.461914,0.751219 0.492454,0.751219 0.03126,0 0.05546,-0.313619 0.05546,-0.710796 0,-0.762181 0.05047,-0.90217 0.295662,-0.820727 0.117856,0.03918 0.122247,0.08573 0.122247,1.285838 v 1.245088 h -0.205865 c -0.236515,0 -0.301087,-0.07602 -0.807589,-0.952523 -0.173792,-0.300705 -0.33918,-0.546662 -0.367616,-0.546662 -0.02822,0 -0.05157,0.292892 -0.05157,0.65084 0,0.358003 -0.01618,0.695334 -0.03625,0.749702 -0.02165,0.05849 -0.106423,0.09864 -0.207811,0.09864 -0.128328,0 -0.179922,-0.03527 -0.204552,-0.140369 z m 2.518011,0.09913 c -0.02165,-0.02317 -0.04001,-0.582365 -0.04001,-1.243026 0,-1.037655 0.01289,-1.206293 0.0945,-1.239065 0.144006,-0.05785 1.536132,-0.0433 1.627024,0.01671 0.04391,0.02919 0.07079,0.120082 0.05972,0.202062 -0.01958,0.145361 -0.03661,0.149593 -0.661855,0.166847 l -0.641714,0.01753 v 0.279002 0.279055 l 0.522289,7.05e-4 c 0.586495,7.6e-4 0.690839,0.04129 0.661855,0.255996 -0.01958,0.144167 -0.03953,0.149702 -0.605043,0.167011 l -0.584915,0.01796 0.01788,0.356917 0.01788,0.356917 0.636083,0.01753 c 0.656261,0.01834 0.754426,0.06142 0.668959,0.294682 -0.02834,0.07705 -0.183778,0.09387 -0.883606,0.09387 -0.46707,0 -0.867124,-0.01845 -0.889042,-0.04178 z"
         inkscape:connector-curvature="0"
         style="fill:#251d3a;fill-opacity:1;stroke-width:0.54259312" />
      <path
         id="path1223"
         d="m 26.121941,34.836093 c -0.07748,-0.10624 -0.258444,-0.463862 -0.630548,-1.245793 -0.580366,-1.219424 -0.612378,-1.273087 -0.77076,-1.292728 -0.133096,-0.01655 -0.696799,-0.04156 -1.701837,-0.07558 -0.58101,-0.01986 -1.005645,-0.03955 -1.068806,-0.05009 -0.02104,-0.0033 -0.03831,-0.01192 -0.03831,-0.01818 0,-0.02246 0.09925,-0.125665 0.22968,-0.239012 0.166251,-0.144492 0.358434,-0.300923 0.818547,-0.666087 0.694792,-0.551438 1.215524,-0.975475 1.297075,-1.056266 0.01715,-0.01687 0.03442,-0.04687 0.03856,-0.06652 0.01946,-0.09339 -0.05473,-0.379924 -0.303361,-1.170319 -0.345796,-1.099293 -0.440325,-1.450069 -0.398047,-1.477389 0.01447,-0.0092 0.23407,0.104465 0.843784,0.436967 0.609715,0.332447 1.361793,0.727943 1.463375,0.769559 l 0.08538,0.03499 0.150124,-0.07683 c 0.204722,-0.104721 0.482371,-0.260283 1.080531,-0.605263 0.278561,-0.160662 0.615078,-0.353173 0.747846,-0.42778 0.505103,-0.283846 0.543744,-0.298893 0.551442,-0.215035 0.0061,0.06368 -0.05339,0.342002 -0.238631,1.120568 -0.308627,1.297666 -0.339448,1.479869 -0.262567,1.552468 0.045,0.04248 0.522848,0.394302 1.380741,1.016494 0.99414,0.721106 0.936246,0.678458 0.936246,0.690287 0,0.0209 -0.05777,0.04742 -0.153335,0.0707 -0.184435,0.04493 -0.490885,0.08323 -1.295275,0.161693 -0.831038,0.081 -1.349763,0.145849 -1.41324,0.176505 -0.03697,0.01786 -0.165437,0.27949 -0.542869,1.1051 -0.407376,0.891046 -0.659252,1.413727 -0.747371,1.55084 l -0.02639,0.04096 z"
         inkscape:connector-curvature="0"
         style="fill:#ff7700;fill-opacity:1;stroke-width:0.54259312" />
    </g>
  </g>
</svg>
