<svg width="130" height="135" viewBox="0 0 130 135" fill="none" xmlns="http://www.w3.org/2000/svg">
<path d="M70.5789 134.822C69.6087 134.295 69.1171 133.252 69.2435 131.986C69.371 130.71 69.9801 129.94 71.0522 129.7C71.7738 129.538 72.6168 129.708 73.1319 130.119C74.2633 131.022 74.3387 133.349 73.2693 134.36C73.0237 134.592 72.6982 134.832 72.5462 134.892C72.1131 135.064 70.9497 135.023 70.5788 134.821L70.5789 134.822ZM72.1041 134.037C72.8268 133.721 73.1572 132.898 73.0005 131.805C72.9457 131.422 72.8227 131.167 72.5603 130.893C72.2414 130.559 72.1249 130.512 71.624 130.512C71.1231 130.512 71.0066 130.559 70.6877 130.893C69.8597 131.759 70.109 133.572 71.1196 134.032C71.5532 134.23 71.6622 134.23 72.1041 134.038L72.1041 134.037ZM55.3493 132.44C55.3441 131.094 55.3821 129.927 55.4323 129.846C55.501 129.735 55.9155 129.707 57.1104 129.731L58.6972 129.763L58.7318 130.137L58.7665 130.511H57.6814C56.4616 130.511 56.3322 130.577 56.3322 131.202C56.3322 131.81 56.4736 131.893 57.5164 131.893H58.4365L58.4018 132.267L58.3671 132.641L57.377 132.699L56.3868 132.757L56.3552 133.822L56.3236 134.887H55.8406H55.3576L55.3497 132.44L55.3493 132.44ZM59.7385 132.325L60.6964 129.763H61.2302H61.764L62.5155 131.72C62.9288 132.797 63.3643 133.95 63.4834 134.282L63.6998 134.887H63.177H62.6543L62.4589 134.311L62.2635 133.735H61.2914C60.2306 133.735 60.1902 133.758 59.9541 134.455C59.8135 134.87 59.7886 134.887 59.2942 134.887H58.7805L59.7385 132.325ZM61.7898 132.765C61.8736 132.536 61.3936 131.202 61.2275 131.202C61.0615 131.202 60.5814 132.536 60.6653 132.765C60.7054 132.874 60.894 132.929 61.2275 132.929C61.5611 132.929 61.7497 132.874 61.7898 132.765ZM64.3884 132.325L64.4182 129.763L64.8255 129.728C65.2939 129.687 65.3719 129.78 66.4894 131.717C66.842 132.328 67.1886 132.808 67.2596 132.783C67.3455 132.753 67.407 132.241 67.4436 131.251L67.4984 129.763L67.8165 129.725C67.9966 129.702 68.1757 129.753 68.2294 129.84C68.2817 129.924 68.3204 131.094 68.3159 132.44L68.308 134.886L67.7934 134.884L67.2788 134.881L66.4117 133.387C65.9348 132.566 65.4768 131.893 65.394 131.893C65.2744 131.893 65.2435 132.2 65.2435 133.39V134.887H64.8013H64.3591L64.3884 132.325ZM83.6616 134.436C83.6362 134.41 83.6163 134.271 83.6163 134.127C83.6163 133.729 83.9056 133.505 84.4218 133.505C85.0738 133.504 85.4934 133.188 85.8903 132.4C86.2114 131.761 90.8773 116.491 90.8773 116.078C90.8773 115.974 90.8091 115.889 90.7248 115.889C90.437 115.889 89.2318 116.826 88.6415 117.509C88.0127 118.236 87.9043 118.293 87.6842 118.016C87.4801 117.758 87.6588 117.428 88.5202 116.473C89.335 115.569 89.9679 115.049 90.8773 114.539L91.4824 114.199L91.8918 112.777C92.117 111.996 92.3645 111.29 92.4419 111.21C92.6393 111.005 94.9224 110.182 95.0175 110.282C95.0605 110.327 94.8396 111.039 94.5267 111.865C94.2139 112.69 93.9579 113.434 93.9579 113.517C93.9579 113.624 94.2108 113.688 94.8105 113.735C96.7062 113.881 97.7714 114.73 98.1949 116.432C98.9233 119.358 96.9949 122.966 93.8227 124.611C92.9528 125.062 91.4537 125.571 90.5219 125.73L90.1114 125.801L89.5665 127.61C89.2669 128.604 88.8452 130.01 88.6294 130.733C88.1617 132.299 88.1183 133.06 88.4815 133.326C88.616 133.425 88.9502 133.506 89.2241 133.507C89.4981 133.509 89.7847 133.55 89.861 133.601C90.0289 133.713 89.9224 134.422 89.736 134.436C89.2178 134.473 83.6982 134.474 83.6622 134.437L83.6616 134.436ZM92.0319 124.242C94.1463 123.209 95.58 121.366 95.9487 119.207C96.2214 117.61 95.7512 115.843 94.9111 115.307C94.5126 115.052 93.606 115.003 93.432 115.227C93.2459 115.466 90.5318 124.433 90.5941 124.603C90.6713 124.813 91.0628 124.715 92.0319 124.242V124.242ZM35.2809 125.811C34.8763 125.343 35.1231 124.199 36.5524 119.919C37.614 116.74 37.7104 116.324 37.473 115.945C37.3745 115.787 37.194 115.659 37.0718 115.659C36.5749 115.659 35.2273 117.279 33.6729 119.746C32.5969 121.454 32.2897 122.106 31.6385 124.064L31.0832 125.733L30.1583 125.767C29.6496 125.786 29.1857 125.751 29.1274 125.69C29.0594 125.618 29.4773 124.161 30.2925 121.626C30.9915 119.452 31.6426 117.349 31.7392 116.953C31.9523 116.079 31.8521 115.774 31.3519 115.774C30.9456 115.774 30.3028 116.37 29.3045 117.672C27.6158 119.875 26.5196 121.918 25.7959 124.21C25.5715 124.921 25.3389 125.568 25.2791 125.647C25.1403 125.831 23.5313 125.843 23.358 125.662C23.2673 125.567 23.6245 124.323 24.7171 120.926C25.6629 117.986 26.1871 116.189 26.1658 115.961C26.1081 115.344 25.8176 115.447 24.8587 116.423C24.1256 117.17 23.9458 117.3 23.7897 117.198C23.3597 116.916 23.4957 116.602 24.5012 115.559C25.5972 114.422 26.2498 113.98 27.0926 113.804C27.7861 113.66 28.1783 113.781 28.4573 114.227C28.7192 114.645 28.5863 115.256 27.7372 117.533C27.3689 118.521 27.0676 119.358 27.0676 119.394C27.0676 119.43 27.1321 119.458 27.2107 119.458C27.2895 119.458 27.5637 119.072 27.8203 118.6C28.5118 117.329 29.4156 116.044 30.2284 115.179C31.3847 113.948 32.4255 113.492 33.2531 113.854C34.2105 114.272 34.2374 115.221 33.3676 117.883C32.8648 119.422 32.7812 119.941 33.1013 119.538C33.1661 119.456 33.5418 118.832 33.9363 118.151C35.5531 115.361 36.8498 114.023 38.194 113.759C38.7211 113.656 39.3252 113.934 39.614 114.414C40.0206 115.09 39.8825 115.853 38.6103 119.955C37.4471 123.707 37.4044 123.944 37.8738 124.041C38.115 124.09 38.6455 123.583 39.2447 122.729C39.6309 122.178 39.8269 121.991 39.9914 122.016C40.1397 122.038 40.2257 122.15 40.248 122.351C40.2729 122.578 40.1145 122.87 39.6132 123.522C38.3932 125.109 37.0894 126.021 36.0398 126.021C35.6206 126.021 35.4131 125.964 35.2808 125.811H35.2809ZM43.1299 125.802C42.1601 125.247 41.8097 124.466 41.8097 122.859C41.8097 120.355 42.9592 117.568 44.7802 115.656C45.808 114.577 46.6582 114.057 47.7831 113.819C48.6151 113.642 49.2179 113.757 49.6781 114.18C50.3883 114.832 50.4394 115.802 49.833 117.118C49.1339 118.635 47.124 119.932 44.8738 120.317C44.6529 120.355 44.4115 120.462 44.3373 120.556C44.1786 120.756 44.0583 122.589 44.1649 123.184C44.2063 123.415 44.4008 123.777 44.6051 124.003C44.928 124.361 45.0347 124.409 45.5083 124.407C46.2468 124.403 46.9215 124.055 47.6549 123.298C48.204 122.732 48.3007 122.674 48.5075 122.79C48.8461 122.98 48.7964 123.249 48.3095 123.866C47.6898 124.651 47.0289 125.199 46.2104 125.607C45.5998 125.912 45.3506 125.968 44.5052 125.993C43.7006 126.017 43.4429 125.981 43.13 125.802L43.1299 125.802ZM46.0494 119.048C47.295 118.432 48.0806 117.321 48.0806 116.176C48.0806 114.761 46.9148 114.717 45.954 116.097C45.2801 117.065 44.4592 119.079 44.6247 119.36C44.7223 119.525 45.3743 119.383 46.0494 119.048V119.048ZM50.727 125.717C50.5243 125.449 50.4894 125.293 50.5374 124.87C50.5696 124.585 51.7168 120.782 53.0861 116.418C54.5924 111.619 55.5784 108.301 55.5821 108.02C55.59 107.416 55.2856 107.139 54.6144 107.139C54.177 107.139 54.1315 107.113 54.1315 106.86C54.1315 106.208 54.0999 106.218 56.2821 106.218C57.5514 106.218 58.3252 106.262 58.3694 106.337C58.4077 106.402 57.2475 110.234 55.7905 114.852C54.1373 120.091 53.1414 123.418 53.1414 123.701C53.1414 124.526 53.6589 124.414 54.6225 123.382C54.9227 123.061 55.2245 122.798 55.293 122.798C55.3615 122.798 55.5062 122.9 55.6146 123.025C55.8048 123.246 55.8019 123.266 55.5294 123.64C55.1321 124.185 53.7586 125.259 52.9763 125.636C52.562 125.835 52.0666 125.971 51.6458 126C51.0157 126.043 50.9605 126.027 50.7269 125.717L50.727 125.717ZM57.8654 125.832C57.7104 125.732 57.4657 125.469 57.3216 125.249C56.2382 123.594 57.9889 118.266 60.5003 115.575C61.3655 114.648 62.1578 114.108 63.017 113.861C63.6005 113.693 63.7936 113.684 64.2756 113.801C64.5887 113.876 65.0054 114.067 65.2017 114.223C65.3979 114.38 65.6064 114.508 65.665 114.508C65.7234 114.508 65.8737 114.327 65.9986 114.105L66.2259 113.702H67.0547C67.5466 113.702 67.8835 113.75 67.8835 113.82C67.8835 113.885 67.534 115.012 67.1068 116.324C66.4391 118.376 65.3236 122.369 65.0799 123.58C65.0324 123.817 65.0531 124.021 65.1347 124.124C65.3395 124.382 65.7974 124.071 66.4062 123.26C66.9514 122.534 67.1038 122.451 67.3407 122.749C67.5497 123.013 67.2324 123.57 66.3285 124.525C65.4014 125.505 64.4706 126.022 63.6331 126.022C63.1329 126.022 63.0224 125.981 62.8706 125.738C62.6601 125.402 62.7215 125.014 63.3219 122.887C63.5316 122.145 63.7031 121.51 63.7031 121.477C63.7031 121.236 63.4005 121.574 62.7519 122.539C61.8062 123.947 60.5105 125.312 59.737 125.716C59.0603 126.068 58.3013 126.116 57.8656 125.833L57.8654 125.832ZM60.2703 124.015C61.3219 123.435 63.8592 119.695 64.3674 117.976C64.8416 116.372 64.7287 115.402 64.0235 115.021C63.583 114.782 63.2953 114.811 62.7435 115.15C61.4452 115.946 59.779 119.534 59.4149 122.317C59.2774 123.368 59.3372 123.766 59.6693 124.009C59.9505 124.215 59.9086 124.215 60.2703 124.016L60.2703 124.015ZM81.1027 125.731C80.9722 125.557 80.8661 125.357 80.867 125.286C80.8722 124.86 81.331 123.251 82.2994 120.259C82.9052 118.388 83.4075 116.668 83.4159 116.436C83.4327 115.958 83.2484 115.659 82.9356 115.659C82.2666 115.659 79.6191 119.21 78.336 121.829C78.0903 122.33 77.692 123.395 77.4509 124.196C77.181 125.093 76.946 125.679 76.8396 125.722C76.7445 125.76 76.298 125.791 75.8472 125.791C75.2571 125.791 75.0115 125.747 74.9701 125.634C74.9385 125.548 75.5342 123.54 76.2938 121.171C77.0534 118.803 77.6749 116.682 77.6749 116.458C77.6749 115.983 77.5147 115.774 77.1513 115.774C76.6177 115.774 75.039 117.63 73.5622 119.994C72.6938 121.384 72.4183 121.988 71.6805 124.121L71.123 125.733L70.1616 125.766C69.4326 125.792 69.1863 125.762 69.1431 125.644C69.1115 125.558 69.7561 123.415 70.5751 120.881C71.3941 118.347 72.0642 116.141 72.0642 115.979C72.0642 115.603 71.7815 115.484 71.4425 115.717C71.2992 115.815 70.8978 116.205 70.5504 116.582C70.203 116.96 69.8646 117.27 69.7984 117.27C69.7321 117.27 69.5998 117.18 69.5043 117.069C69.2656 116.792 69.4183 116.521 70.39 115.497C71.3154 114.522 72.1399 113.975 72.9558 113.796C73.6787 113.637 74.1216 113.804 74.3596 114.323C74.5507 114.741 74.4015 115.35 73.5419 117.667C73.2132 118.552 72.9443 119.318 72.9443 119.368C72.9443 119.417 73.0061 119.457 73.0818 119.456C73.1574 119.454 73.4669 119.006 73.7694 118.459C75.7036 114.963 77.7802 113.196 79.1533 113.878C80.1249 114.361 80.0964 115.442 79.0327 118.454C78.6409 119.563 78.6185 119.985 78.9775 119.497C79.0782 119.36 79.4823 118.695 79.8756 118.019C80.85 116.344 81.8381 115.066 82.6291 114.456C83.8289 113.532 84.96 113.515 85.4836 114.413C85.9142 115.152 85.8073 115.694 84.2646 120.586C83.7794 122.125 83.3978 123.493 83.4167 123.626C83.4359 123.758 83.5312 123.919 83.6292 123.983C83.8908 124.155 84.3783 123.747 85.0608 122.787C85.6347 121.979 85.8476 121.865 86.0746 122.242C86.2261 122.494 86.0907 122.755 85.3187 123.711C84.1438 125.163 83.0361 125.917 81.9574 125.999C81.3906 126.042 81.3214 126.019 81.1032 125.729L81.1027 125.731ZM101.248 125.787C99.9773 125.11 99.3624 123.573 99.499 121.416C99.7221 117.892 101.356 114.916 103.559 114.019C104.357 113.694 105.61 113.688 106.28 114.005C107.943 114.793 108.426 116.519 107.854 119.632C107.352 122.367 105.892 124.846 104.317 125.636C103.436 126.078 101.933 126.152 101.248 125.787V125.787ZM102.955 124.305C104.025 123.728 105.32 121.472 106.167 118.711C106.775 116.73 106.733 115.736 106.026 115.354C104.966 114.78 103.666 115.936 102.341 118.632C101.447 120.452 101.08 121.672 101.065 122.876C101.055 123.769 101.07 123.837 101.376 124.172C101.765 124.597 102.326 124.645 102.955 124.305L102.955 124.305ZM112.11 113.715C111.067 113.362 109.846 112.291 109.484 111.409C108.974 110.17 108.919 107.951 109.321 104.837C109.572 102.885 109.573 99.8355 109.323 98.3889C108.893 95.903 108.137 93.6673 106.882 91.1681C106.024 89.4594 105.284 88.1992 102.882 84.359C96.601 74.3146 94.1716 69.0231 93.225 63.3242C93.0009 61.9747 92.9747 58.2968 93.1736 56.0755C93.2419 55.3156 93.3293 53.7871 93.3685 52.6789C93.6068 45.9277 91.6013 41.3603 87.7265 39.83C86.3232 39.2758 85.2521 39.0957 82.5711 38.9632C77.6544 38.7202 75.4412 39.0575 73.3017 40.3759C72.3929 40.9359 70.7691 42.6588 70.0358 43.841C67.802 47.4428 66.4474 52.7221 66.4388 57.8601C66.4349 60.1136 66.4936 60.4965 67.2645 63.284C67.8444 65.38 67.994 66.3886 67.994 68.2028C67.994 72.4364 66.9571 76.7979 64.4205 83.2335C62.2584 88.7193 60.6996 92.0699 59.9714 92.7973L59.6328 93.1354L59.3116 92.8134C58.8836 92.3843 58.3764 91.364 58.1337 90.4442C57.9799 89.8614 57.9378 89.2881 57.9432 87.8536C57.9511 85.6353 58.1322 84.3012 59.1884 78.6563C60.2324 73.0772 60.3399 72.2857 60.34 70.1799C60.34 68.2417 60.2006 67.4446 59.6667 66.3309C59.0407 65.0251 57.9732 64.0768 56.7085 63.7031C55.8979 63.4636 49.5874 62.1845 48.2462 61.9879C46.7672 61.7711 44.3649 61.7993 43.2405 62.0464C40.6713 62.6117 38.4668 64.18 36.9587 66.5154C36.7001 66.9159 36.2425 67.5803 35.9418 67.9919C35.6411 68.4035 35.1737 69.2325 34.9033 69.8342C33.2835 73.4375 33.1422 73.7057 32.5904 74.2249C32.2923 74.5054 31.4301 75.0834 30.6743 75.5094C28.8707 76.526 27.8962 77.254 26.6424 78.5213C24.9237 80.2585 23.3559 82.6427 21.528 86.2989C20.2339 88.8872 19.5155 91.1219 19.0479 94.0131C18.6604 96.4097 18.5749 98.3015 18.5559 104.916C18.5352 111.998 18.534 112.014 17.8391 112.711C16.948 113.604 15.1485 112.858 13.147 110.764C11.9703 109.533 11.5 108.813 9.91378 105.815C5.62879 97.7143 3.42411 92.2368 1.94292 86.011C0.420831 79.6134 -0.296072 71.5354 0.113865 65.4013C0.987995 52.3209 4.6691 40.7557 11.2546 30.3994C21.8745 13.6986 38.9399 2.65189 57.4875 0.47206C58.3346 0.37248 59.4733 0.226157 60.0179 0.146993C61.3652 -0.0489977 68.5719 -0.0489977 69.9193 0.146993C70.4639 0.226218 71.6025 0.372236 72.4497 0.47145C80.7224 1.44028 89.1334 4.32616 96.5981 8.75695C98.4599 9.86208 102.427 12.625 104.024 13.9284C112.158 20.5679 118.548 28.75 123.003 38.2288C126.973 46.6774 129.124 55.2451 129.839 65.4589C129.972 67.353 129.893 73.8834 129.724 74.9578C129.665 75.3378 129.535 76.4517 129.435 77.4333C128.347 88.1791 124.562 99.0385 118.696 108.239C117.43 110.225 117.194 110.531 116.613 110.944C116.253 111.2 115.755 111.679 115.507 112.009C115.259 112.338 114.975 112.653 114.876 112.707C114.777 112.762 114.374 113.006 113.98 113.249C113.236 113.71 112.58 113.873 112.11 113.714L112.11 113.715ZM61.3884 61.0876C62.502 60.4884 63.6611 58.7237 64.076 56.9959C64.827 53.8684 64.5205 50.733 63.0566 46.5687C62.2658 44.3189 62.2648 44.3064 62.8298 43.5639C63.4576 42.7388 64.0895 41.3024 64.3728 40.0565C64.5533 39.2626 64.5959 38.7708 64.5638 37.8539C64.5255 36.7542 64.5022 36.6523 64.2265 36.3638C63.9852 36.1111 63.8305 36.0541 63.3866 36.0541C62.7527 36.0541 62.3757 36.281 61.2138 37.362C60.2182 38.2882 59.5799 38.6014 58.2433 38.8196C57.1625 38.9961 57.1346 38.9946 55.6686 38.6889C54.3665 38.4173 53.7991 38.3689 50.9961 38.29C49.2413 38.2407 47.7657 38.2244 47.7169 38.2535C47.6682 38.2827 47.5075 38.276 47.3602 38.237C46.9622 38.1325 46.5625 37.1993 46.2514 35.6481C45.9329 34.0606 45.5565 33.1733 45.0958 32.9239C44.4598 32.5798 43.7501 33.088 43.1935 34.2864C42.7249 35.2952 42.5034 36.4934 42.3756 38.7109L42.2813 40.345L41.4533 41.4166C40.5125 42.6341 40.0279 43.4031 39.4718 44.5607C37.5027 48.6598 37.3434 54.2178 39.1239 56.6966C39.8212 57.6674 41.3666 59.1525 41.5841 59.0609C41.6779 59.0213 42.3241 58.8621 43.0199 58.7069C44.1251 58.4604 44.5559 58.4256 46.4263 58.4315C49.6726 58.4419 51.7692 58.6772 54.1398 59.2979C55.3992 59.6277 55.9901 59.8639 57.3449 60.5796C58.7646 61.3296 59.1124 61.4328 60.0724 61.3891C60.6632 61.3623 61.0369 61.2765 61.3884 61.0873L61.3884 61.0876ZM71.4239 36.9844C71.9272 36.7648 72.6489 36.4474 73.0276 36.2792C75.3171 35.262 77.8999 35.0924 82.5706 35.6523C83.5992 35.7756 85.2652 35.9079 86.2728 35.9463L88.1048 36.0163L88.404 35.7032C88.6618 35.4333 88.6957 35.321 88.6493 34.8902C88.6194 34.6152 88.3901 33.9729 88.1392 33.4627C87.5509 32.2671 87.5069 31.8564 87.7873 30.1826C88.1251 28.166 88.0957 26.611 87.6876 24.8859C87.2585 23.0723 86.6752 21.8531 85.099 19.4744C83.6605 17.3037 83.1768 16.4196 82.5114 14.7448C81.8507 13.0819 81.5667 12.5368 81.0633 11.9653C79.3808 10.0549 75.3522 9.23787 72.5838 10.2455C71.1064 10.7832 70.0035 11.8202 69.2114 13.4162C68.6437 14.5602 68.3882 15.3866 67.9927 17.3583C67.5913 19.3587 67.3814 20.0662 66.2924 23.0878C65.8245 24.386 65.3731 25.7849 65.2893 26.1965C65.0092 27.5722 65.1561 29.713 65.5923 30.6099C65.7102 30.8524 66.0331 31.3706 66.3097 31.7613C67.0007 32.7373 67.1036 33.0408 67.2812 34.6262C67.4665 36.2807 67.7227 36.8507 68.4581 37.2441C69.1425 37.6103 70.2026 37.5174 71.4239 36.9845L71.4239 36.9844ZM60.7035 31.9509C61.4506 31.5024 62.0525 30.6923 62.7065 29.2552C64.3351 25.6763 65.1632 22.2782 65.1801 19.105C65.188 17.6299 65.1018 17.2157 64.7871 17.2157C64.525 17.2157 63.6028 18.3188 62.7143 19.6949C61.3264 21.8447 61.0554 22.1065 58.5093 23.7562C57.0683 24.6899 56.6399 25.0785 56.0274 26.0078C55.5174 26.7815 55.5067 26.8161 55.5067 27.6799C55.5067 28.4475 55.5541 28.6635 55.8746 29.344C56.3653 30.387 57.372 31.5011 58.2282 31.9489C59.1493 32.4306 59.9031 32.4312 60.7035 31.9508L60.7035 31.9509ZM95.0767 30.0315C95.7258 29.6618 96.7968 28.498 97.259 27.6601C97.9573 26.3943 98.1952 24.9974 97.8572 24.1491C97.5914 23.4823 97.1146 23.0426 95.2774 21.7697C91.74 19.3191 89.9876 17.7846 88.5894 15.9132C87.7253 14.7567 87.1142 14.4423 86.5914 14.8854C85.9946 15.3911 86.2426 16.583 87.754 20.4722C88.271 21.8028 88.8401 23.3244 89.0185 23.8535C89.4631 25.1717 90.4434 27.2791 90.9516 28.0092C91.1827 28.3413 91.503 28.8139 91.6633 29.0595C91.8237 29.3052 92.133 29.6484 92.3507 29.8222C93.2343 30.5275 94.0904 30.5933 95.0766 30.0315L95.0767 30.0315ZM49.4167 21.0724C50.0141 19.748 50.5442 18.6212 50.5946 18.5684C50.6451 18.5154 51.8204 18.3669 53.2065 18.2378C55.4168 18.0319 56.0635 17.9146 55.8844 17.752C55.8583 17.7282 54.9209 17.0475 53.8015 16.2394C52.682 15.4313 51.7018 14.7072 51.6231 14.6302C51.5064 14.516 51.5824 14.0629 52.0357 12.1728C52.6411 9.64762 52.6464 9.61665 52.4723 9.61665C52.4067 9.61665 51.3778 10.1866 50.1855 10.8832C48.9933 11.5798 47.9577 12.1497 47.8841 12.1497C47.8106 12.1497 46.8025 11.6316 45.644 10.9983C44.4854 10.365 43.52 9.84693 43.4987 9.84693C43.3715 9.84693 43.5382 10.5006 44.1647 12.4625C44.7153 14.1862 44.8416 14.7041 44.7423 14.8312C44.6724 14.9207 43.7133 15.7067 42.611 16.5778C40.6744 18.1082 40.2995 18.4383 40.3914 18.5318C40.4151 18.5561 41.5485 18.6092 42.9099 18.6501C44.2714 18.6909 45.5012 18.75 45.6429 18.781C45.8543 18.8273 46.097 19.2628 46.9922 21.2019C47.5983 22.5149 48.1386 23.5473 48.2071 23.5234C48.2749 23.4997 48.8193 22.3968 49.4167 21.0724H49.4167ZM27.423 107.881C26.6424 107.661 26.2706 107.447 25.812 106.953C25.2721 106.371 25.0269 105.664 25.1879 105.154C25.4279 104.393 25.8827 104.088 27.791 103.41C31.3433 102.147 32.614 101.465 33.702 100.235C34.3786 99.4698 34.7786 98.6933 35.0681 97.5821C35.2233 96.9865 35.262 96.3985 35.2575 94.7036C35.2523 92.7572 35.2118 92.3247 34.7924 89.6872C33.8967 84.059 33.9538 82.1612 35.0942 79.6544C36.5895 76.3676 38.7033 74.8999 41.942 74.8999C44.346 74.8999 46.8439 75.7488 49.1202 77.3393C50.7624 78.4867 51.4923 79.5065 51.5801 80.7758C51.619 81.3388 51.5892 81.4605 51.3296 81.7827C50.9412 82.2659 50.3456 82.4268 49.2358 82.3484C47.9946 82.2608 46.8465 81.9156 45.3512 81.1805C42.6233 79.8395 40.9208 79.7537 39.6822 80.8947C38.7546 81.7492 38.3391 83.1163 38.3546 85.2623C38.3638 86.4674 38.4292 87.0012 38.7591 88.5437C39.3053 91.0977 39.4918 92.2458 39.61 93.7825C39.7493 95.5931 39.527 97.7221 39.0569 99.0789C38.2219 101.489 37.6 102.539 35.9321 104.353C35.0765 105.285 32.8886 106.809 31.5979 107.374C30.1475 108.009 28.5604 108.202 27.4229 107.881L27.423 107.881ZM85.026 107.35C84.8414 107.196 84.7882 107.023 84.8128 106.657C84.832 106.368 85.9834 104.616 87.1827 103.051C88.9411 100.756 89.8874 98.4118 89.886 96.3539C89.8852 95.1804 89.7671 94.7665 89.0371 93.3795C88.2584 91.9001 87.9918 91.5758 84.4935 87.8529C82.2746 85.4916 81.4061 84.4834 80.8813 83.6599C79.2835 81.1528 78.73 79.3328 78.9971 77.4649C79.2336 75.8108 79.8147 74.1842 80.8246 72.3496C82.4002 69.4873 83.9062 68.2484 84.6743 69.1829C85.0744 69.6697 85.1089 70.1994 84.8361 71.6642C84.496 73.4904 84.4295 75.0597 84.639 76.3133C84.9588 78.2273 85.5361 79.1164 88.3945 82.0975C90.408 84.1974 93.1413 87.4099 94.2613 88.9928C96.4254 92.0515 96.8812 95.6992 95.4997 98.9061C94.1799 101.97 91.0426 105.222 87.8105 106.877C86.9517 107.317 86.6486 107.413 85.9952 107.455C85.4451 107.488 85.1557 107.459 85.026 107.35L85.026 107.35ZM46.2654 100.129C45.6057 99.9507 45.1102 99.4064 45.1102 98.8596C45.1102 98.6606 45.1776 98.6184 45.4953 98.6184C45.7071 98.6184 45.8803 98.6729 45.8803 98.7386C45.8803 98.8047 46.0018 98.9863 46.1504 99.1417C46.6454 99.6598 47.7506 99.4228 47.7506 98.7986C47.7506 98.4409 47.617 98.3491 46.6613 98.05C45.6404 97.7305 45.2202 97.3355 45.2202 96.6954C45.2202 95.8523 45.8134 95.3944 46.9057 95.3944C47.3401 95.3944 47.5973 95.4644 47.8702 95.6569C48.2774 95.944 48.5343 96.3748 48.4444 96.6198C48.3491 96.8801 47.8123 96.8025 47.5537 96.4913C47.0841 95.9261 46.1868 95.979 46.1207 96.5757C46.0818 96.9288 46.173 96.9873 47.2479 97.2973C48.1009 97.5433 48.6307 98.0692 48.6307 98.6701C48.6307 99.2199 48.3734 99.7245 47.986 99.9341C47.5967 100.145 46.7009 100.246 46.2654 100.129L46.2654 100.129ZM50.414 100.116C49.9906 100.011 49.6628 99.7273 49.4366 99.2696C49.2267 98.8448 49.3183 98.6177 49.6999 98.6177C49.9178 98.6177 50.0944 98.7338 50.3132 99.0207C50.5787 99.369 50.6847 99.4237 51.0937 99.4237C51.6174 99.4237 51.9312 99.1733 51.9312 98.7553C51.9312 98.4511 51.6042 98.2282 50.897 98.0504C49.8952 97.7986 49.4009 97.3393 49.4009 96.6604C49.4009 96.2359 49.7328 95.7267 50.1197 95.5575C50.6208 95.3384 51.5353 95.3504 52.002 95.5829C52.4022 95.7816 52.7579 96.3409 52.6577 96.614C52.5531 96.8992 52.0407 96.8001 51.7112 96.4309C51.387 96.0677 51.058 96.0009 50.5632 96.1977C50.2095 96.3385 50.1919 96.7117 50.5285 96.9359C50.6646 97.0267 51.088 97.1909 51.4692 97.3008C51.8745 97.4177 52.2971 97.6324 52.4868 97.8179C52.7628 98.0877 52.8113 98.2215 52.8113 98.7134C52.8113 99.4614 52.4703 99.9177 51.774 100.101C51.2266 100.245 50.945 100.249 50.414 100.117V100.116ZM55.0666 100.129C54.2722 99.9148 53.7762 99.3548 53.5833 98.4541C53.2195 96.7554 54.1411 95.3943 55.655 95.3943C56.3882 95.3943 56.852 95.6001 57.287 96.1186C58.1814 97.1847 57.8981 99.3328 56.7834 99.936C56.3976 100.145 55.5006 100.245 55.0666 100.129L55.0666 100.129ZM56.4913 99.0499C57.2991 98.2042 57.0148 96.5043 56.0129 96.1901C54.6499 95.7627 53.7687 97.916 54.8455 99.0429C55.1421 99.3534 55.2954 99.4241 55.6717 99.4241C56.0463 99.4241 56.2014 99.3534 56.4913 99.0498L56.4913 99.0499ZM59.8144 100.067C58.8858 99.7102 58.4892 99.0374 58.4851 97.8122C58.4825 97.1059 58.532 96.8542 58.7547 96.4305C59.4205 95.1644 61.4369 95.025 62.0922 96.1996C62.3148 96.5986 62.265 96.7073 61.8084 96.8199C61.5684 96.8791 61.4742 96.8376 61.3319 96.6103C60.8706 95.8735 59.8051 96.0412 59.4758 96.9022C59.0252 98.0808 59.5306 99.4241 60.4245 99.4241C60.8677 99.4241 61.139 99.2502 61.3443 98.8346C61.4928 98.534 61.5618 98.4934 61.8131 98.5583C62.286 98.6804 62.342 98.8109 62.1129 99.2561C61.719 100.022 60.6653 100.393 59.8144 100.067L59.8144 100.067ZM76.7397 100.178C76.6789 100.154 76.4944 100.104 76.3292 100.066C75.8763 99.9613 75.2918 99.3614 75.0816 98.7852C74.9449 98.4106 74.9099 98.0694 74.952 97.5206C75.0562 96.162 75.8208 95.3943 77.0697 95.3943C78.5122 95.3943 79.2873 96.3573 79.1967 98.0369C79.1268 99.3306 78.5367 100.007 77.3448 100.158C77.0725 100.192 76.8002 100.202 76.7396 100.177L76.7397 100.178ZM77.6785 99.2495C78.1114 99.0152 78.335 98.5238 78.335 97.8066C78.335 97.0172 78.0854 96.4967 77.5882 96.2499C77.2327 96.0733 77.1406 96.0691 76.7541 96.2122C76.1702 96.4284 75.8897 96.8549 75.8292 97.6189C75.7211 98.9836 76.6524 99.8048 77.6785 99.2495L77.6785 99.2495ZM40.3795 99.9563C40.3795 99.8614 40.7346 98.8208 41.1686 97.6438C41.8453 95.8084 41.9952 95.494 42.2218 95.4345C42.7909 95.285 42.9251 95.4852 43.8057 97.7914C44.267 98.9997 44.6172 100.017 44.584 100.052C44.5505 100.086 44.3567 100.115 44.1528 100.115C43.8184 100.115 43.7615 100.065 43.57 99.5974L43.3578 99.0791H42.4872C41.5562 99.0791 41.474 99.1222 41.2934 99.7124C41.2047 100.002 41.1227 100.064 40.7836 100.094C40.4828 100.121 40.3795 100.085 40.3795 99.9568L40.3795 99.9563ZM43.0199 98.1619C43.0199 97.9153 42.5566 96.776 42.4563 96.776C42.3341 96.776 42.0543 97.4249 41.957 97.9335L41.8922 98.2727H42.4561C42.7662 98.2727 43.0199 98.2235 43.0199 98.1619L43.0199 98.1619ZM63.2261 100.038C63.186 99.9959 63.1528 98.9607 63.1528 97.7376V95.5138L63.4293 95.4408C63.9866 95.2944 64.0329 95.4685 64.0329 97.7014C64.0329 98.8283 64.0031 99.8323 63.9661 99.9324C63.8997 100.113 63.3703 100.189 63.2261 100.038L63.2261 100.038ZM64.5833 99.9713C64.5837 99.7607 66.0933 95.7437 66.243 95.555C66.4456 95.2995 66.9751 95.3567 67.1562 95.6538C67.31 95.9061 68.8736 99.9036 68.8736 100.045C68.8736 100.084 68.684 100.115 68.4524 100.115C68.0633 100.115 68.015 100.078 67.8198 99.6259L67.6085 99.1366L66.6988 99.1028L65.7892 99.069L65.5751 99.5918C65.3787 100.071 65.3287 100.115 64.972 100.115C64.734 100.115 64.5832 100.059 64.5833 99.9707L64.5833 99.9713ZM67.2233 98.1292C67.2231 97.8306 66.7999 96.8338 66.6733 96.8338C66.5467 96.8338 66.1235 97.8306 66.1233 98.1292C66.1233 98.2251 66.3065 98.2731 66.6733 98.2731C67.0401 98.2731 67.2233 98.2255 67.2233 98.1292ZM69.1697 100.041C69.1277 99.9975 69.0937 99.8161 69.0937 99.6379C69.0937 99.4001 69.3856 98.9338 70.1938 97.8813C70.7989 97.0932 71.294 96.3926 71.294 96.3244C71.294 96.2457 70.9552 96.2006 70.3662 96.2006C69.5279 96.2006 69.4316 96.1775 69.367 95.9647C69.2213 95.4842 69.4643 95.3945 70.9134 95.3945C71.6574 95.3945 72.3444 95.4252 72.4401 95.4644C72.8533 95.6303 72.627 96.1327 71.459 97.6425C70.8236 98.4637 70.3038 99.1737 70.3038 99.2203C70.3038 99.3535 70.7237 99.4219 71.734 99.4531C72.6508 99.4807 72.6692 99.4869 72.6692 99.7698V100.058L70.9574 100.089C70.016 100.106 69.2115 100.085 69.1697 100.041V100.041ZM73.3433 99.9393C73.3055 99.8357 73.2742 98.829 73.2742 97.7021C73.2742 95.4667 73.3204 95.2951 73.8801 95.4421L74.1589 95.5151L74.1291 97.7863L74.0992 100.057L73.7557 100.092C73.5174 100.117 73.3911 100.069 73.3431 99.9387L73.3433 99.9393ZM80.0385 99.8563C80.0047 99.7138 79.9917 98.6961 80.0085 97.5947C80.0346 95.9106 80.0676 95.5738 80.2154 95.4765C80.6199 95.2097 80.9024 95.4737 81.7252 96.8886C82.1681 97.6501 82.5765 98.2731 82.6328 98.2731C82.6903 98.2731 82.7351 97.6951 82.7351 96.9631C82.7351 95.5584 82.8281 95.3004 83.28 95.4505C83.4972 95.5227 83.5053 95.6085 83.5053 97.8203V100.115H83.1259C82.69 100.115 82.571 99.9749 81.6375 98.3595C81.3172 97.8053 81.0124 97.352 80.96 97.352C80.9079 97.352 80.8649 97.8918 80.8649 98.5515C80.8649 99.2113 80.835 99.833 80.7982 99.9332C80.7583 100.041 80.602 100.115 80.4152 100.115C80.1787 100.115 80.0836 100.05 80.0382 99.8563L80.0385 99.8563ZM84.6792 100.039C84.6393 99.9963 84.6055 98.9657 84.6055 97.7481C84.6055 95.8357 84.6293 95.5249 84.7796 95.4645C85.045 95.3579 87.6107 95.3847 87.7782 95.4953C87.8592 95.5491 87.9086 95.7166 87.8883 95.8677C87.8522 96.1356 87.8207 96.1434 86.6685 96.1752L85.4858 96.2075V96.7217V97.236L86.4484 97.2373C87.5293 97.2387 87.7216 97.3134 87.6682 97.7091C87.6322 97.9748 87.5954 97.985 86.5531 98.0169L85.4751 98.05L85.508 98.7078L85.541 99.3656L86.7133 99.3979C87.9228 99.4317 88.1037 99.5111 87.9462 99.941C87.894 100.083 87.6075 100.114 86.3177 100.114C85.4569 100.114 84.7196 100.08 84.6792 100.037L84.6792 100.039Z" fill="#6E6988"/>
<path d="M48.143 23.4398C48.0003 23.244 47.6667 22.5849 46.9809 21.1438C45.9113 18.8964 45.8523 18.7975 45.5604 18.7613C45.3151 18.7308 44.2762 18.6847 42.4239 18.622C41.3531 18.5854 40.5705 18.5491 40.4541 18.5297C40.4152 18.5236 40.3835 18.5078 40.3835 18.4962C40.3835 18.4548 40.5665 18.2646 40.8068 18.0557C41.1132 17.7894 41.4674 17.5011 42.3154 16.8281C43.5959 15.8118 44.5556 15.0303 44.7059 14.8814C44.7376 14.8503 44.7694 14.795 44.777 14.7588C44.8129 14.5867 44.6762 14.0586 44.2179 12.6019C43.5806 10.5759 43.4064 9.92942 43.4843 9.87907C43.511 9.862 43.9157 10.0716 45.0394 10.6844C46.1631 11.2971 47.5492 12.026 47.7364 12.1027L47.8938 12.1672L48.1705 12.0256C48.5478 11.8326 49.0595 11.5459 50.1619 10.9101C50.6753 10.614 51.2955 10.2592 51.5402 10.1217C52.4711 9.59857 52.5423 9.57084 52.5565 9.72539C52.5675 9.84276 52.4581 10.3557 52.1167 11.7906C51.5479 14.1822 51.4911 14.518 51.6328 14.6518C51.7157 14.7301 52.5964 15.3785 54.1775 16.5252C56.0097 17.8542 55.903 17.7756 55.903 17.7974C55.903 17.8359 55.7965 17.8848 55.6204 17.9277C55.2805 18.0105 54.7157 18.0811 53.2332 18.2257C51.7016 18.375 50.7456 18.4945 50.6286 18.551C50.5605 18.5839 50.3237 19.0661 49.6281 20.5877C48.8773 22.2299 48.4131 23.1932 48.2507 23.4459L48.2021 23.5214L48.143 23.4398Z" fill="white"/>
</svg>
